<?xml version="1.0" encoding="utf-8"?>
<!-- Generator: Adobe Illustrator 24.3.0, SVG Export Plug-In . SVG Version: 6.00 Build 0)  -->
<svg version="1.1" id="圖層_1" xmlns="http://www.w3.org/2000/svg" xmlns:xlink="http://www.w3.org/1999/xlink" x="0px" y="0px"
	 viewBox="0 0 512 512" style="enable-background:new 0 0 512 512;" xml:space="preserve">
<style type="text/css">
	.st0{fill:#9BC9FF;}
	.st1{fill:#1E81CE;}
</style>
<g id="Growth">
	<path class="st0" d="M256,288h32c35.3,0,64-28.7,64-64v-32h-32c-35.3,0-64,28.7-64,64V288z"/>
	<path class="st0" d="M192,216h-32v32c0,35.3,28.7,64,64,64h32v-32C256,244.7,227.3,216,192,216z"/>
	<circle class="st0" cx="256" cy="96" r="72"/>
	<g>
		<path class="st1" d="M470.5,206.6c-17-3.2-33.7,7.4-37.8,24.3l-18.2,67.6c-12.5-7.9-28.6-6.5-39.6,3.3l-69.8,43.9
			c-25.7,16-41.2,44.2-41.1,74.5V488c0,4.4,3.6,8,8,8s8-3.6,8-8v-67.8c-0.1-24.8,12.7-47.8,33.7-60.9c0,0,71.5-45,71.9-45.5
			c6.3-6,16.3-6,22.6,0c6.1,6.1,6.3,15.9,0.4,22.2l-53.2,37.4c-3.6,2.5-4.5,7.5-1.9,11.1s7.5,4.5,11.1,1.9c0,0,54.6-38.4,54.9-38.7
			c8.8-8.7,11.7-21.9,7.4-33.5l21.3-79.2c2-8.6,10.3-14.1,19-12.8c7.4,1.6,12.6,8.1,12.7,15.6c0,1.4-0.2,2.8-0.5,4.2l-27.7,103.5
			c-1.8,6.8-5.4,13-10.4,17.9l-56.8,56.8C373.9,430.7,368,445,368,459.9V488c0,4.4,3.6,8,8,8s8-3.6,8-8v-28.1
			c0-10.6,4.2-20.8,11.7-28.3l56.8-56.8c6.9-7,11.9-15.6,14.5-25.1l27.7-103.5c4.6-17.1-5.6-34.6-22.6-39.2
			C471.6,206.8,471,206.7,470.5,206.6L470.5,206.6z"/>
		<path class="st1" d="M206.9,345.7l-69.8-43.9c-10.8-10.2-27.2-11.6-39.6-3.4l-18.1-67.6c-4.1-16.9-20.8-27.5-37.8-24.3
			c-17.3,3.7-28.4,20.7-24.7,38c0.1,0.5,0.2,1,0.4,1.6l27.7,103.5c2.5,9.5,7.5,18.2,14.5,25.1l56.8,56.8
			c7.5,7.5,11.7,17.7,11.7,28.3V488c0,4.4,3.6,8,8,8s8-3.6,8-8v-28.1c0-14.9-5.9-29.1-16.4-39.6l-56.8-56.8c-5-5-8.5-11.2-10.4-17.9
			L32.7,242c-2.2-8.6,2.9-17.4,11.5-19.6c0.2-0.1,0.5-0.1,0.7-0.2c8.7-1.4,17,4.2,19,12.8l21.3,79.2c-4.2,11.6-1.4,24.7,7.4,33.5
			c0.3,0.3,54.9,38.7,54.9,38.7c3.6,2.5,8.6,1.7,11.1-1.9c2.5-3.6,1.7-8.6-1.9-11.1l0,0l-53.2-37.4c-6-6.5-5.7-16.6,0.8-22.6
			c6.3-5.9,16.2-5.7,22.2,0.4c0.4,0.4,71.9,45.5,71.9,45.5c21,13.1,33.7,36.2,33.7,61V488c0,4.4,3.6,8,8,8s8-3.6,8-8v-67.8
			C248.1,389.9,232.5,361.7,206.9,345.7L206.9,345.7z"/>
		<path class="st1" d="M264,296h24c39.7,0,72-32.3,72-72v-32c0-4.4-3.6-8-8-8h-32c-21.8,0-42.4,9.9-56,26.8v-35.3
			c44-4.4,76-43.6,71.6-87.6S292,12,248,16.4S172,60,176.4,104c3.8,37.9,33.7,67.8,71.6,71.6v59.3c-13.6-17-34.2-26.8-56-26.8h-32
			c-4.4,0-8,3.6-8,8v32c0,39.7,32.3,72,72,72h24v40c0,4.4,3.6,8,8,8s8-3.6,8-8V296z M320,200h24v24c0,30.9-25.1,56-56,56h-24v-24
			C264,225.1,289.1,200,320,200z M192,96c0-35.3,28.7-64,64-64s64,28.7,64,64s-28.7,64-64,64C220.7,160,192,131.3,192,96z M224,304
			c-30.9,0-56-25.1-56-56v-24h24c30.9,0,56,25.1,56,56v24H224z"/>
		<path class="st1" d="M264,144v-9.5c12.5-4.4,19-18.1,14.6-30.5c-3.4-9.6-12.5-16-22.6-16c-4.4,0-8-3.6-8-8s3.6-8,8-8s8,3.6,8,8
			s3.6,8,8,8s8-3.6,8-8c0-10.1-6.4-19.1-16-22.5V48c0-4.4-3.6-8-8-8s-8,3.6-8,8v9.5c-12.5,4.4-19,18.1-14.6,30.5
			c3.4,9.6,12.5,16,22.6,16c4.4,0,8,3.6,8,8s-3.6,8-8,8s-8-3.6-8-8s-3.6-8-8-8s-8,3.6-8,8c0,10.1,6.4,19.1,16,22.5v9.5
			c0,4.4,3.6,8,8,8S264,148.4,264,144z"/>
	</g>
</g>
</svg>
