<?xml version="1.0" encoding="utf-8"?>
<!-- Generator: Adobe Illustrator 24.3.0, SVG Export Plug-In . SVG Version: 6.00 Build 0)  -->
<svg version="1.1" id="圖層_1" xmlns="http://www.w3.org/2000/svg" xmlns:xlink="http://www.w3.org/1999/xlink" x="0px" y="0px"
	 viewBox="0 0 512 512" style="enable-background:new 0 0 512 512;" xml:space="preserve">
<style type="text/css">
	.st0{fill:#9BC9FF;}
	.st1{fill:#1E81CE;}
</style>
<g id="Research">
	<g>
		<path class="st0" d="M104,24l-80,80h80V24z"/>
		<path class="st0" d="M423.7,335.4l-13.9,8l-27.7,16l-13.9,8l7.7,13.4l47.6,82.4c8.8,15.3,28.4,20.5,43.7,11.7
			c15.3-8.8,20.5-28.4,11.7-43.7L423.7,335.4z"/>
		<circle class="st0" cx="88" cy="232" r="16"/>
		<circle class="st0" cx="152" cy="120" r="16"/>
		<path class="st0" d="M256,232c0,8.8,7.1,16,15.9,16.1c8.8,0,16-7.1,16.1-15.9c0-4.6-1.9-9-5.3-12c-6.5-5.9-16.6-5.4-22.5,1.1
			C257.5,224.2,256,228,256,232z"/>
		<circle class="st0" cx="336" cy="152" r="16"/>
		<path class="st0" d="M152,376h32v80h-32V376z"/>
		<path class="st0" d="M280,376h32v80h-32V376z"/>
		<path class="st0" d="M216,344h32v112h-32V344z"/>
		<path class="st0" d="M88,408h32v48H88V408z"/>
		<path class="st0" d="M414.8,128C379.5,66.8,301.2,45.8,240,81.1S157.8,194.8,193.1,256s113.6,82.2,174.9,46.9c0,0,0,0,0,0
			c2.8-1.6,5.4-3.4,8-5.2C431.4,260,448.3,186,414.8,128L414.8,128z M376,255.4c-35,39.7-95.6,43.5-135.3,8.4s-43.5-95.6-8.4-135.3
			s95.6-43.5,135.3-8.4c7.8,6.9,14.4,14.9,19.6,23.9C407.9,179.6,403.4,224.6,376,255.4z"/>
		<path class="st0" d="M256,232c0,8.8,7.2,15.9,16,15.9c8.8,0,15.9-7.2,15.9-16c0-8.8-7.1-15.8-15.9-15.9
			C263.2,216,256,223.2,256,232z"/>
		<circle class="st0" cx="336" cy="152" r="16"/>
		<path class="st0" d="M380.6,294.5c-8,6.1-16.8,11.2-26.1,15l-0.8,0.5l28.5,49.3l27.7-16L381.4,294L380.6,294.5z"/>
	</g>
	<path class="st1" d="M252,101.9c-49.7,28.7-66.8,92.3-38.1,142.1s92.3,66.8,142.1,38.1c49.7-28.7,66.8-92.3,38.1-142.1
		C365.3,90.3,301.8,73.3,252,101.9L252,101.9z M380.2,148c24.4,42,10.1,95.9-31.9,120.3s-95.9,10.1-120.3-31.9
		c-8-13.9-12.2-29.6-11.9-45.7l33.9,31.7c-5.4,12.1,0.1,26.3,12.2,31.7c12.1,5.4,26.3-0.1,31.7-12.2c3.1-7,2.7-15-1.1-21.7
		l35.6-45.5c2.4,0.9,5,1.3,7.6,1.3c13.3,0,24-10.7,24-24s-10.7-24-24-24s-24,10.7-24,24c0,4.5,1.3,9,3.8,12.8l-35.1,44.9
		c-6.4-2.6-13.6-2.2-19.7,1.1l-42.4-39.6c11.4-47.2,59-76.2,106.2-64.7C348.1,112.1,368.2,127.1,380.2,148L380.2,148z M280,232
		c0,4.4-3.6,8-8,8s-8-3.6-8-8s3.6-8,8-8S280,227.6,280,232z M328,152c0-4.4,3.6-8,8-8s8,3.6,8,8s-3.6,8-8,8S328,156.4,328,152z"/>
	<path class="st1" d="M486,427.2l-55.3-95.9c-2.2-3.8-7.1-5.1-10.9-2.9l-6.9,4l-21.1-36.6c57.4-48.3,64.8-133.9,16.5-191.3
		c-7.1-8.4-15.2-16-24.1-22.5V24c0-4.4-3.6-8-8-8H104c-2.1,0-4.2,0.8-5.7,2.3l-80,80c-1.5,1.5-2.3,3.5-2.3,5.7v384c0,4.4,3.6,8,8,8
		h352c4.4,0,8-3.6,8-8v-77.4l32.7,56.6c10.9,19.2,35.3,25.9,54.5,15c19.2-10.9,25.9-35.3,15-54.5C486.1,427.5,486,427.4,486,427.2
		L486,427.2z M398.9,340.4l-13.9,8l-20.1-34.9c2.4-1.2,4.7-2.4,7.1-3.8s4.5-2.9,6.7-4.4L398.9,340.4z M407.9,132
		c33.3,57.5,13.7,131.2-43.8,164.5s-131.2,13.7-164.5-43.8s-13.7-131.2,43.8-164.5c27.7-16.1,60.7-20.4,91.6-12.1
		C365.8,84.3,392,104.4,407.9,132z M96,43.3V96H43.3L96,43.3z M368,480H32V112h72c4.4,0,8-3.6,8-8V32h256v40.1
		c-9.1-4.9-18.8-8.8-28.8-11.5c-64.1-17.3-131.3,14.4-158.8,74.9l-6.5-6c5.3-12.1-0.1-26.3-12.3-31.6c-12.1-5.3-26.3,0.1-31.6,12.3
		c-3.7,8.5-2.3,18.4,3.8,25.4l-41.7,72.8c-1.4-0.3-2.8-0.4-4.2-0.4c-13.3,0-24,10.7-24,24s10.7,24,24,24s24-10.7,24-24
		c0-5.7-2.1-11.3-5.9-15.6l41.7-72.8c1.4,0.3,2.8,0.4,4.2,0.4c3.8,0,7.6-1,11-2.8l11.3,10.5c-22.4,71.5,17.4,147.6,88.9,170
		c1.9,0.6,3.7,1.1,5.6,1.6c11.5,3.1,23.5,4.7,35.4,4.7c15.7,0,31.2-2.8,45.9-8.1l21.1,36.5l-6.9,4c-3.8,2.2-5.1,7.1-2.9,10.9
		l6.6,11.5V480z M144,120c0-4.4,3.6-8,8-8s8,3.6,8,8s-3.6,8-8,8S144,124.4,144,120z M96,232c0,4.4-3.6,8-8,8s-8-3.6-8-8s3.6-8,8-8
		S96,227.6,96,232z M474.5,453.4c-3.4,12.8-16.6,20.4-29.4,17c-6.2-1.6-11.4-5.7-14.6-11.2l-51.3-88.9l41.6-24l51.3,88.9
		C475.3,440.7,476.1,447.2,474.5,453.4L474.5,453.4z"/>
	<path class="st1" d="M328,448h-8v-72c0-4.4-3.6-8-8-8h-32c-4.4,0-8,3.6-8,8v72h-16V344c0-4.4-3.6-8-8-8h-32c-4.4,0-8,3.6-8,8v104
		h-16v-72c0-4.4-3.6-8-8-8h-32c-4.4,0-8,3.6-8,8v72h-16v-40c0-4.4-3.6-8-8-8H88c-4.4,0-8,3.6-8,8v40h-8c-4.4,0-8,3.6-8,8s3.6,8,8,8
		h256c4.4,0,8-3.6,8-8S332.4,448,328,448z M96,448v-32h16v32H96z M160,448v-64h16v64H160z M224,448v-96h16v96H224z M288,448v-64h16
		v64H288z"/>
	<path class="st1" d="M64,304h96c4.4,0,8-3.6,8-8s-3.6-8-8-8H64c-4.4,0-8,3.6-8,8S59.6,304,64,304z"/>
	<path class="st1" d="M160,336c4.4,0,8-3.6,8-8s-3.6-8-8-8H64c-4.4,0-8,3.6-8,8s3.6,8,8,8H160z"/>
</g>
</svg>
