<?xml version="1.0" encoding="utf-8"?>
<!-- Generator: Adobe Illustrator 24.3.0, SVG Export Plug-In . SVG Version: 6.00 Build 0)  -->
<svg version="1.1" id="圖層_1" xmlns="http://www.w3.org/2000/svg" xmlns:xlink="http://www.w3.org/1999/xlink" x="0px" y="0px"
	 viewBox="0 0 512 512" style="enable-background:new 0 0 512 512;" xml:space="preserve">
<style type="text/css">
	.st0{fill:#9BC9FF;}
	.st1{fill:#1E81CE;}
	.st2{fill:#FFFFFF;}
</style>
<path class="st0" d="M120,352h-8v16c0,4.4-3.6,8-8,8l8,72l-16,16l-16-16l8-72c-4.4,0-8-3.6-8-8v-16h-8c-26.5,0-48,21.5-48,48v88h144
	v-88C168,373.5,146.5,352,120,352z"/>
<path class="st0" d="M440,352h-8v16c0,4.4-3.6,8-8,8l8,72l-16,16l-16-16l8-72c-4.4,0-8-3.6-8-8v-16h-8c-26.5,0-48,21.5-48,48v88h144
	v-88C488,373.5,466.5,352,440,352z"/>
<path class="st0" d="M440,104h-8v16c0,4.4-3.6,8-8,8l8,72l-16,16l-16-16l8-72c-4.4,0-8-3.6-8-8v-16h-8c-26.5,0-48,21.5-48,48v49
	c5.3,9.5,8,20.1,8,31v8h136v-88C488,125.5,466.5,104,440,104z"/>
<path class="st0" d="M344,201c-11.3-20.4-32.7-33-56-33h-8v8c0,8.8-7.2,16-16,16l16,88l-24,32l-24-32l16-88c-8.8,0-16-7.2-16-16v-8
	h-8c-35.3,0-64,28.7-64,64v104h40v152h112V336h40V232C352,221.2,349.3,210.5,344,201z"/>
<path class="st0" d="M120,104h-8v16c0,4.4-3.6,8-8,8l8,72l-16,16l-16-16l8-72c-4.4,0-8-3.6-8-8v-16h-8c-26.5,0-48,21.5-48,48v88h136
	v-8c0-10.8,2.7-21.5,8-31v-49C168,125.5,146.5,104,120,104z"/>
<path class="st1" d="M450.7,345.1c18.3-19.2,17.6-49.6-1.6-67.9c-19.2-18.3-49.6-17.6-67.9,1.6c-17.7,18.5-17.7,47.7,0,66.3
	C355,350.2,336,373.2,336,400v88c0,4.4,3.6,8,8,8h144c4.4,0,8-3.6,8-8v-88C496,373.2,477,350.2,450.7,345.1z M480,480h-16v-72
	c0-4.4-3.6-8-8-8s-8,3.6-8,8v72h-64v-72c0-4.4-3.6-8-8-8s-8,3.6-8,8v72h-16v-80c0-22.1,17.9-40,40-40v8c0,5.4,2.8,10.5,7.3,13.4
	l-7.3,65.7c-0.3,2.4,0.6,4.8,2.3,6.5l16,16c3.1,3.1,8.2,3.1,11.3,0l16-16c1.7-1.7,2.6-4.1,2.3-6.5l-7.3-65.7c4.6-2.9,7.3-8,7.3-13.4
	v-8c22.1,0,40,17.9,40,40V480z M416,452.7l-7.6-7.6l6.8-61.1h1.6l6.8,61.1L416,452.7z M424,368h-16v-8h16V368z M416,280
	c17.7,0,32,14.3,32,32s-14.3,32-32,32s-32-14.3-32-32S398.3,280,416,280z"/>
<polygon class="st2" points="423.6,445.1 416,452.7 408.4,445.1 415.2,384 416.8,384 "/>
<rect x="408" y="360" class="st2" width="16" height="8"/>
<circle class="st2" cx="416" cy="312" r="32"/>
<path class="st1" d="M450.7,97.1c18.3-19.2,17.6-49.6-1.6-67.9c-19.2-18.3-49.6-17.6-67.9,1.6c-17.7,18.5-17.7,47.7,0,66.3
	C355,102.2,336,125.2,336,152v26.4c-11.5-10.3-25.9-16.7-41.3-18.1c22.3-21.4,23.1-56.8,1.7-79.2C275,58.8,239.6,58,217.3,79.4
	c-22.3,21.4-23.1,56.8-1.7,79.2c0.5,0.6,1.1,1.2,1.7,1.7c-15.3,1.5-29.8,7.8-41.3,18.1V152c0-26.8-19-49.8-45.3-54.9
	c18.3-19.2,17.6-49.6-1.6-67.9C110,10.9,79.6,11.6,61.3,30.8c-17.7,18.5-17.7,47.7,0,66.3C35,102.2,16,125.2,16,152v88
	c0,4.4,3.6,8,8,8h128v88c0,4.4,3.6,8,8,8h32v144c0,4.4,3.6,8,8,8h112c4.4,0,8-3.6,8-8V344h32c4.4,0,8-3.6,8-8v-88h128
	c4.4,0,8-3.6,8-8v-88C496,125.2,477,102.2,450.7,97.1z M480,232h-16v-72c0-4.4-3.6-8-8-8s-8,3.6-8,8v72h-64v-72c0-4.4-3.6-8-8-8
	s-8,3.6-8,8v72h-8c0-11.5-2.7-22.7-8-32.9V152c0-22.1,17.9-40,40-40v8c0,5.4,2.8,10.5,7.3,13.4l-7.3,65.7c-0.3,2.4,0.6,4.8,2.3,6.5
	l16,16c3.1,3.1,8.2,3.1,11.3,0l16-16c1.7-1.7,2.6-4.1,2.3-6.5l-7.3-65.7c4.6-2.9,7.3-8,7.3-13.4v-8c22.1,0,40,17.9,40,40V232z
	 M416,204.7l-7.6-7.6l6.8-61.1h1.6l6.8,61.1L416,204.7z M424,120h-16v-8h16V120z M416,32c17.7,0,32,14.3,32,32s-14.3,32-32,32
	s-32-14.3-32-32S398.3,32,416,32z M32,152c0-22.1,17.9-40,40-40v8c0,5.4,2.8,10.5,7.3,13.4L72,199.1c-0.3,2.4,0.6,4.8,2.3,6.5l16,16
	c3.1,3.1,8.2,3.1,11.3,0l16-16c1.7-1.7,2.6-4.1,2.3-6.5l-7.3-65.7c4.6-2.9,7.3-8,7.3-13.4v-8c22.1,0,40,17.9,40,40v47.1
	c-5.3,10.2-8,21.5-8,32.9h-8v-72c0-4.4-3.6-8-8-8s-8,3.6-8,8v72H64v-72c0-4.4-3.6-8-8-8s-8,3.6-8,8v72H32V152z M96,204.7l-7.6-7.6
	l6.8-61.1h1.7l6.7,61.1L96,204.7z M104,120H88v-8h16V120z M304,224v256h-40V352c0-4.4-3.6-8-8-8s-8,3.6-8,8v128h-40V224
	c0-4.4-3.6-8-8-8s-8,3.6-8,8v104h-24v-96c0-30.9,25.1-56,56-56c0,9.7,5.8,18.4,14.8,22.1l-14.6,80.4c-0.4,2.2,0.1,4.5,1.5,6.2l24,32
	c2.7,3.5,7.7,4.3,11.2,1.6c0.6-0.5,1.2-1,1.6-1.6l24-32c1.3-1.8,1.9-4,1.5-6.2l-14.6-80.4c8.9-3.7,14.8-12.5,14.8-22.1
	c30.9,0,56,25.1,56,56v96h-24V224c0-4.4-3.6-8-8-8S304,219.6,304,224z M240.5,278l14.2-78h2.7l14.2,78L256,298.7L240.5,278z
	 M264,184h-16c-4.4,0-8-3.6-8-8h32C272,180.4,268.4,184,264,184z M216,120c0-22.1,17.9-40,40-40s40,17.9,40,40s-17.9,40-40,40
	C233.9,160,216,142.1,216,120z M96,32c17.7,0,32,14.3,32,32s-14.3,32-32,32S64,81.7,64,64S78.3,32,96,32z"/>
<polygon class="st2" points="423.6,197.1 416,204.7 408.4,197.1 415.2,136 416.8,136 "/>
<rect x="408" y="112" class="st2" width="16" height="8"/>
<circle class="st2" cx="416" cy="64" r="32"/>
<path class="st2" d="M296,120c0,22.1-17.9,40-40,40c-22.1,0-40-17.9-40-40c0-22.1,17.9-40,40-40S296,97.9,296,120z"/>
<path class="st2" d="M272,176c0,4.4-3.6,8-8,8h-16c-4.4,0-8-3.6-8-8H272z"/>
<polygon class="st2" points="271.5,278 256,298.7 240.5,278 254.7,200 257.3,200 "/>
<circle class="st2" cx="96" cy="64" r="32"/>
<path class="st1" d="M130.7,345.1c18.3-19.2,17.6-49.6-1.6-67.9c-19.2-18.3-49.6-17.6-67.9,1.6c-17.7,18.5-17.7,47.7,0,66.3
	C35,350.2,16,373.2,16,400v88c0,4.4,3.6,8,8,8h144c4.4,0,8-3.6,8-8v-88C176,373.2,157,350.2,130.7,345.1z M160,480h-16v-72
	c0-4.4-3.6-8-8-8s-8,3.6-8,8v72H64v-72c0-4.4-3.6-8-8-8s-8,3.6-8,8v72H32v-80c0-22.1,17.9-40,40-40v8c0,5.4,2.8,10.5,7.3,13.4
	L72,447.1c-0.3,2.4,0.6,4.8,2.3,6.5l16,16c3.1,3.1,8.2,3.1,11.3,0l16-16c1.7-1.7,2.6-4.1,2.3-6.5l-7.3-65.7c4.6-2.9,7.3-8,7.3-13.4
	v-8c22.1,0,40,17.9,40,40V480z M96,452.7l-7.6-7.6l6.8-61.1h1.7l6.7,61.1L96,452.7z M104,368H88v-8h16V368z M96,280
	c17.7,0,32,14.3,32,32s-14.3,32-32,32s-32-14.3-32-32S78.3,280,96,280z"/>
<rect x="88" y="360" class="st2" width="16" height="8"/>
<polygon class="st2" points="103.6,445.1 96,452.7 88.4,445.1 95.2,384 96.9,384 "/>
<circle class="st2" cx="96" cy="312" r="32"/>
</svg>
