<?xml version="1.0" encoding="utf-8"?>
<!-- Generator: Adobe Illustrator 24.3.0, SVG Export Plug-In . SVG Version: 6.00 Build 0)  -->
<svg version="1.1" id="圖層_1" xmlns="http://www.w3.org/2000/svg" xmlns:xlink="http://www.w3.org/1999/xlink" x="0px" y="0px"
	 viewBox="0 0 512 512" style="enable-background:new 0 0 512 512;" xml:space="preserve">
<style type="text/css">
	.st0{fill:#9BC9FF;}
	.st1{fill:#1E81CE;}
</style>
<g id="App_development">
	<path class="st0" d="M344,440v16c0,17.7,14.3,32,32,32h80c17.7,0,32-14.3,32-32v-16H344z"/>
	<path class="st0" d="M456,248h-80c-17.7,0-32,14.3-32,32v16h144v-16C488,262.3,473.7,248,456,248z"/>
	<path class="st0" d="M56,488h224c17.7,0,32-14.3,32-32v-16H200v8c0,8.8-7.2,16-16,16h-32c-8.8,0-16-7.2-16-16v-8H24v16
		C24,473.7,38.3,488,56,488z"/>
	<path class="st0" d="M200,440h96V264c0-8.8-7.2-16-16-16H56c-8.8,0-16,7.2-16,16v176H200z M72,280h192v128H72V280z"/>
	<path class="st0" d="M312.6,86.1l-22.6-22.6L272,81.4V56h-32v25.4l-17.9-17.9l-22.6,22.6l17.9,17.9H192v32h25.4l-17.9,17.9
		l22.6,22.6l17.9-17.9V184h32v-25.4l17.9,17.9l22.6-22.6L294.6,136H320v-32h-25.4L312.6,86.1z M256,136c-8.8,0-16-7.2-16-16
		s7.2-16,16-16c8.8,0,16,7.2,16,16C272,128.8,264.8,136,256,136z"/>
	<g>
		<path class="st1" d="M456,240h-32V136c0-13.3-10.7-24-24-24h-40.4c-4.4-57.2-54.3-100.1-111.5-95.7c-51.2,3.9-91.9,44.6-95.7,95.8
			c-0.1,0-0.3-0.1-0.4-0.1h-48c-13.3,0-24,10.7-24,24v104H56c-13.3,0-24,10.7-24,24v168h-8c-4.4,0-8,3.6-8,8v16
			c0,22.1,17.9,40,40,40h224c22.1,0,40-17.9,40-40v-16c0-4.4-3.6-8-8-8h-8V264c0-13.3-10.7-24-24-24H96V136c0-4.4,3.6-8,8-8h48
			c0.1,0,0.3-0.1,0.4-0.1c4.3,57.2,54.2,100.1,111.4,95.8c51.2-3.9,91.9-44.5,95.8-95.7H400c4.4,0,8,3.6,8,8v104h-32
			c-22.1,0-40,17.9-40,40v176c0,22.1,17.9,40,40,40h80c22.1,0,40-17.9,40-40V280C496,257.9,478.1,240,456,240L456,240z M304,456
			c0,13.3-10.7,24-24,24H56c-13.3,0-24-10.7-24-24v-8h96c0,13.3,10.7,24,24,24h32c13.3,0,24-10.7,24-24h96V456z M144,448h48
			c0,4.4-3.6,8-8,8h-32C147.6,456,144,452.4,144,448z M280,256c4.4,0,8,3.6,8,8v168H48V264c0-4.4,3.6-8,8-8H280z M256,208
			c-48.6,0-88-39.4-88-88s39.4-88,88-88s88,39.4,88,88C343.9,168.6,304.6,207.9,256,208z M352,304h128v128H352V304z M376,256h80
			c13.3,0,24,10.7,24,24v8H352v-8C352,266.7,362.7,256,376,256z M456,480h-80c-13.3,0-24-10.7-24-24v-8h128v8
			C480,469.3,469.3,480,456,480z"/>
		<path class="st1" d="M424,456h-16c-4.4,0-8,3.6-8,8s3.6,8,8,8h16c4.4,0,8-3.6,8-8S428.4,456,424,456z"/>
		<path class="st1" d="M72,416h192c4.4,0,8-3.6,8-8V280c0-4.4-3.6-8-8-8H72c-4.4,0-8,3.6-8,8v128C64,412.4,67.6,416,72,416z M80,288
			h176v112H80V288z"/>
		<path class="st1" d="M408,280h16c4.4,0,8-3.6,8-8s-3.6-8-8-8h-16c-4.4,0-8,3.6-8,8S403.6,280,408,280z"/>
		<path class="st1" d="M284.3,57.8L280,62v-6c0-4.4-3.6-8-8-8h-32c-4.4,0-8,3.6-8,8v6l-4.3-4.3c-3.1-3.1-8.2-3.1-11.3,0l-22.6,22.6
			c-3.1,3.1-3.1,8.2,0,11.3L198,96h-6c-4.4,0-8,3.6-8,8v32c0,4.4,3.6,8,8,8h6l-4.3,4.3c-3.1,3.1-3.1,8.2,0,11.3l22.6,22.6
			c3.1,3.1,8.2,3.1,11.3,0l4.3-4.3v6c0,4.4,3.6,8,8,8h32c4.4,0,8-3.6,8-8v-6l4.3,4.3c3.1,3.1,8.2,3.1,11.3,0l22.6-22.6
			c3.1-3.1,3.1-8.2,0-11.3L314,144h6c4.4,0,8-3.6,8-8v-32c0-4.4-3.6-8-8-8h-6l4.3-4.3c3.1-3.1,3.1-8.2,0-11.3l-22.6-22.6
			C292.5,54.7,287.4,54.7,284.3,57.8L284.3,57.8z M287.2,107.1c1.2,3,4.2,4.9,7.4,4.9H312v16h-17.4c-4.4,0-8,3.6-8,8
			c0,2.1,0.8,4.2,2.3,5.7l12.3,12.3l-11.3,11.3L277.7,153c-3.1-3.1-8.2-3.1-11.3,0c-1.5,1.5-2.3,3.5-2.3,5.7V176h-16v-17.4
			c0-4.4-3.6-8-8-8c-2.1,0-4.2,0.8-5.7,2.3l-12.3,12.3l-11.3-11.3l12.3-12.3c3.1-3.1,3.1-8.2,0-11.3c-1.5-1.5-3.5-2.3-5.7-2.3H200
			v-16h17.4c4.4,0,8-3.6,8-8c0-2.1-0.8-4.2-2.3-5.7l-12.3-12.3l11.3-11.3L234.3,87c3.1,3.1,8.2,3.1,11.3,0c1.5-1.5,2.3-3.5,2.3-5.7
			V64h16v17.4c0,4.4,3.6,8,8,8c2.1,0,4.2-0.8,5.7-2.3l12.3-12.3l11.3,11.3L289,98.3C286.7,100.6,286,104.1,287.2,107.1L287.2,107.1z
			"/>
		<path class="st1" d="M256,96c-13.3,0-24,10.7-24,24s10.7,24,24,24c13.3,0,24-10.7,24-24S269.3,96,256,96z M256,128
			c-4.4,0-8-3.6-8-8s3.6-8,8-8s8,3.6,8,8S260.4,128,256,128z"/>
		<path class="st1" d="M384,320h-8c-4.4,0-8,3.6-8,8s3.6,8,8,8h8c4.4,0,8-3.6,8-8S388.4,320,384,320z"/>
		<path class="st1" d="M408,336h48c4.4,0,8-3.6,8-8s-3.6-8-8-8h-48c-4.4,0-8,3.6-8,8S403.6,336,408,336z"/>
		<path class="st1" d="M384,352h-8c-4.4,0-8,3.6-8,8s3.6,8,8,8h8c4.4,0,8-3.6,8-8S388.4,352,384,352z"/>
		<path class="st1" d="M456,352h-48c-4.4,0-8,3.6-8,8s3.6,8,8,8h48c4.4,0,8-3.6,8-8S460.4,352,456,352z"/>
		<path class="st1" d="M384,384h-8c-4.4,0-8,3.6-8,8s3.6,8,8,8h8c4.4,0,8-3.6,8-8S388.4,384,384,384z"/>
		<path class="st1" d="M456,384h-48c-4.4,0-8,3.6-8,8s3.6,8,8,8h48c4.4,0,8-3.6,8-8S460.4,384,456,384z"/>
		<path class="st1" d="M128,304h-8c-4.4,0-8,3.6-8,8s3.6,8,8,8h8c4.4,0,8-3.6,8-8S132.4,304,128,304z"/>
		<path class="st1" d="M208,304h-56c-4.4,0-8,3.6-8,8s3.6,8,8,8h56c4.4,0,8-3.6,8-8S212.4,304,208,304z"/>
		<path class="st1" d="M128,336h-8c-4.4,0-8,3.6-8,8s3.6,8,8,8h8c4.4,0,8-3.6,8-8S132.4,336,128,336z"/>
		<path class="st1" d="M208,336h-56c-4.4,0-8,3.6-8,8s3.6,8,8,8h56c4.4,0,8-3.6,8-8S212.4,336,208,336z"/>
		<path class="st1" d="M128,368h-8c-4.4,0-8,3.6-8,8s3.6,8,8,8h8c4.4,0,8-3.6,8-8S132.4,368,128,368z"/>
		<path class="st1" d="M208,368h-56c-4.4,0-8,3.6-8,8s3.6,8,8,8h56c4.4,0,8-3.6,8-8S212.4,368,208,368z"/>
	</g>
</g>
</svg>
