<?xml version="1.0" encoding="utf-8"?>
<!-- Generator: Adobe Illustrator 24.3.0, SVG Export Plug-In . SVG Version: 6.00 Build 0)  -->
<svg version="1.1" id="圖層_1" xmlns="http://www.w3.org/2000/svg" xmlns:xlink="http://www.w3.org/1999/xlink" x="0px" y="0px"
	 viewBox="0 0 550 550" style="enable-background:new 0 0 550 550;" xml:space="preserve">
<style type="text/css">
	.st0{fill:#9BC9FF;}
	.st1{fill:#1E81CE;}
	.st2{fill:#C2DEFF;}
	.st3{fill:#E8F2FF;}
</style>
<g id="Mobile_phone-2">
	<g>
		<path class="st0" d="M283,43H75c-17.7,0-32,14.3-32,32v400c0,17.7,14.3,32,32,32h208c17.7,0,32-14.3,32-32V331h-24v136
			c0,8.8-7.2,16-16,16H83c-8.8,0-16-7.2-16-16V83c0-8.8,7.2-16,16-16h39.4c5.3,0,10.3,2.7,13.3,7.1l6.6,9.8
			c2.9,4.5,7.9,7.1,13.3,7.1h46.9c5.3,0,10.3-2.7,13.3-7.1l6.6-9.8c2.9-4.5,7.9-7.1,13.3-7.1H275c8.8,0,16,7.2,16,16v79.5l5-4
			c2.8-2.3,6.4-3.5,10-3.5h9V75C315,57.3,300.7,43,283,43L283,43z"/>
		<path class="st0" d="M459,171v63.9V259h48V147h-48V171z"/>
		<path class="st0" d="M163,419h32v32h-32V419z"/>
		<path class="st0" d="M99,419h32v32H99V419z"/>
		<path class="st0" d="M227,419h32v32h-32V419z"/>
		<path class="st0" d="M349.5,224.5l-7.8,7.8c-3,3-7.1,4.7-11.3,4.6c-8.8,0-16-7.2-16-16c0-4.2,1.7-8.3,4.7-11.3l7.1-7.1
			c-2.1-4.9-3.2-10.2-3.2-15.6H163c0,22.1-17.9,40-40,40v64c22.1,0,40,17.9,40,40h160c0-22.1,17.9-40,40-40v-64
			C358.4,227,353.8,226.1,349.5,224.5z"/>
		<path class="st0" d="M363,227v-16l-13.5,13.5C353.8,226.1,358.4,227,363,227z"/>
		<path class="st0" d="M341.7,187H323c0,5.3,1.1,10.6,3.2,15.6L341.7,187z"/>
	</g>
	<path class="st1" d="M507,139h-48c-4.4,0-8,3.6-8,8v11l-17-8.5c-3.3-1.7-7-2.5-10.7-2.6H323V75c0-22.1-17.9-40-40-40H75
		c-22.1,0-40,17.9-40,40v400c0,22.1,17.9,40,40,40h208c22.1,0,40-17.9,40-40V339h40c4.4,0,8-3.6,8-8v-76.4
		c20.8,8.2,44.3,6.3,63.5-5.2l10.7-6.4l5.8-0.1V259c0,4.4,3.6,8,8,8h48c4.4,0,8-3.6,8-8V147C515,142.6,511.4,139,507,139z
		 M355,283.7c-20.1,3.4-35.9,19.2-39.3,39.3H170.3c-3.4-20.1-19.2-35.9-39.3-39.3v-49.4c20.1-3.4,35.9-19.2,39.3-39.3h152.2l-9,9
		c-9.7,9-10.2,24.2-1.2,33.9c9,9.7,24.2,10.2,33.9,1.2c0.4-0.4,0.8-0.8,1.2-1.2l7.6-7.6V283.7z M307,475c0,13.2-10.8,24-24,24H75
		c-13.2,0-24-10.8-24-24V75c0-13.2,10.8-24,24-24h208c13.2,0,24,10.8,24,24v72h-1c-2.4,0-4.7,0.4-7,1.1V83c0-13.2-10.8-24-24-24
		h-39.4c-8,0-15.5,4-19.9,10.6l-6.6,9.8c-1.5,2.2-4,3.5-6.6,3.5h-46.9c-2.7,0-5.2-1.4-6.6-3.6l-6.6-9.7C138,63,130.5,59,122.4,59H83
		c-13.2,0-24,10.8-24,24v384c0,13.2,10.8,24,24,24h192c13.2,0,24-10.8,24-24V339h8V475z M131,217.9V195h22.9
		C150.9,206.2,142.2,214.9,131,217.9z M131,300.1c11.2,3,19.9,11.7,22.9,22.9H131V300.1z M283,158.7L257.6,179H131v-24
		c0-4.4-3.6-8-8-8s-8,3.6-8,8v208c0,4.4,3.6,8,8,8s8-3.6,8-8v-24h152v128c0,4.4-3.6,8-8,8H83c-4.4,0-8-3.6-8-8V83c0-4.4,3.6-8,8-8
		h39.4c2.7,0,5.2,1.4,6.6,3.6l6.6,9.7C140,95,147.5,99,155.6,99h46.9c8,0,15.5-4,19.9-10.6l6.6-9.8c1.5-2.2,4-3.5,6.6-3.5H275
		c4.4,0,8,3.6,8,8V158.7z M355,323h-22.9c3-11.2,11.7-19.9,22.9-22.9V323z M451,226.9l-8.1,0.1c-1.4,0-2.8,0.4-4,1.1l-12.6,7.6
		c-15.1,9-33.6,10.4-49.9,3.8l-5.4-2.2v-23l10.2-10.2l4.2,1.4c11.5,3.8,23.9,3.8,35.4,0l8.9-3c4.2-1.4,6.5-6,5-10.2
		c-1.4-4.2-6-6.5-10.2-5l-8.8,3c-8.2,2.7-17.1,2.7-25.3,0l-8.8-3c-2.9-1-6.1-0.2-8.2,1.9l-16,16l-21.2,21.3c-3.1,3.1-8.2,3.1-11.4,0
		c-1.5-1.5-2.3-3.5-2.3-5.7c0-2.1,0.8-4.1,2.3-5.6l31.1-31.1c3.1-3.1,3.1-8.2,0-11.3c-3.1-3.1-8.2-3.1-11.3,0l-6.1,6.1h-55.3
		l17.8-14.2c1.4-1.1,3.2-1.8,5-1.8h117.3c1.3,0,2.5,0.3,3.6,0.9L451,176V226.9z M499,251h-32v-96h32V251z"/>
	<path class="st2" d="M355,300.1V323h-22.9C335.1,311.8,343.8,303.1,355,300.1z"/>
	<path class="st2" d="M153.9,195c-3,11.2-11.7,19.9-22.9,22.9V195H153.9z"/>
	<path class="st2" d="M153.9,323H131v-22.9C142.2,303.1,150.9,311.8,153.9,323z"/>
	<path class="st3" d="M257.6,179l25.4-20.3V83c0-4.4-3.6-8-8-8h-39.4c-2.7,0-5.1,1.3-6.6,3.5l-6.6,9.8C217.9,95,210.5,99,202.4,99
		h-46.9c-8,0-15.5-4-19.9-10.7l-6.6-9.7c-1.5-2.2-4-3.6-6.6-3.6H83c-4.4,0-8,3.6-8,8v384c0,4.4,3.6,8,8,8h192c4.4,0,8-3.6,8-8V339
		H131v24c0,4.4-3.6,8-8,8s-8-3.6-8-8V155c0-4.4,3.6-8,8-8s8,3.6,8,8v24H257.6z M219,419c0-4.4,3.6-8,8-8h32c4.4,0,8,3.6,8,8v32
		c0,4.4-3.6,8-8,8h-32c-4.4,0-8-3.6-8-8V419z M155,419c0-4.4,3.6-8,8-8h32c4.4,0,8,3.6,8,8v32c0,4.4-3.6,8-8,8h-32c-4.4,0-8-3.6-8-8
		V419z M131,411c4.4,0,8,3.6,8,8v32c0,4.4-3.6,8-8,8H99c-4.4,0-8-3.6-8-8v-32c0-4.4,3.6-8,8-8H131z"/>
	<path class="st3" d="M451,176v51l-8.1,0.1c-1.4,0-2.8,0.4-4,1.1l-12.6,7.6c-15.1,9-33.6,10.4-49.9,3.8l-5.4-2.2v-23l10.2-10.2
		l4.2,1.4c11.5,3.8,23.9,3.8,35.4,0l8.9-3c4.2-1.4,6.5-6,5-10.2c-1.4-4.2-6-6.5-10.2-5l-8.8,3c-8.2,2.7-17.1,2.7-25.3,0l-8.8-3
		c-2.9-1-6.1-0.2-8.2,1.9l-16,16l-21.2,21.3c-3.1,3.1-8.2,3.1-11.4,0c-1.5-1.5-2.3-3.5-2.3-5.7c0-2.1,0.8-4.1,2.3-5.6l31.1-31.1
		c3.1-3.1,3.1-8.2,0-11.3c-3.1-3.1-8.2-3.1-11.3,0l-6.1,6.1h-55.3l17.8-14.2c1.4-1.1,3.2-1.8,5-1.8h117.3c1.3,0,2.5,0.3,3.6,0.9
		L451,176z"/>
	<path class="st1" d="M187,251h-16c-4.4,0-8,3.6-8,8s3.6,8,8,8h16c4.4,0,8-3.6,8-8S191.4,251,187,251z"/>
	<path class="st1" d="M291,259c0,4.4,3.6,8,8,8h16c4.4,0,8-3.6,8-8s-3.6-8-8-8h-16C294.6,251,291,254.6,291,259z"/>
	<path class="st1" d="M195,411h-32c-4.4,0-8,3.6-8,8v32c0,4.4,3.6,8,8,8h32c4.4,0,8-3.6,8-8v-32C203,414.6,199.4,411,195,411z
		 M187,443h-16v-16h16V443z"/>
	<path class="st1" d="M131,411H99c-4.4,0-8,3.6-8,8v32c0,4.4,3.6,8,8,8h32c4.4,0,8-3.6,8-8v-32C139,414.6,135.4,411,131,411z
		 M123,443h-16v-16h16V443z"/>
	<path class="st1" d="M259,411h-32c-4.4,0-8,3.6-8,8v32c0,4.4,3.6,8,8,8h32c4.4,0,8-3.6,8-8v-32C267,414.6,263.4,411,259,411z
		 M251,443h-16v-16h16V443z"/>
	<path class="st1" d="M171,75h16c4.4,0,8-3.6,8-8s-3.6-8-8-8h-16c-4.4,0-8,3.6-8,8S166.6,75,171,75z"/>
	<path class="st1" d="M235,235h16c4.4,0,8,3.6,8,8s3.6,8,8,8s8-3.6,8-8c0-13.3-10.7-24-24-24v-8c0-4.4-3.6-8-8-8s-8,3.6-8,8v8
		c-13.3,0-24,10.7-24,24c0,13.3,10.7,24,24,24h16c4.4,0,8,3.6,8,8s-3.6,8-8,8h-16c-4.4,0-8-3.6-8-8s-3.6-8-8-8s-8,3.6-8,8
		c0,13.3,10.7,24,24,24v8c0,4.4,3.6,8,8,8s8-3.6,8-8v-8c13.3,0,24-10.7,24-24s-10.7-24-24-24l0,0h-16c-4.4,0-8-3.6-8-8
		S230.6,235,235,235z"/>
</g>
</svg>
