<?xml version="1.0" encoding="utf-8"?>
<!-- Generator: Adobe Illustrator 24.3.0, SVG Export Plug-In . SVG Version: 6.00 Build 0)  -->
<svg version="1.1" id="圖層_1" xmlns="http://www.w3.org/2000/svg" xmlns:xlink="http://www.w3.org/1999/xlink" x="0px" y="0px"
	 viewBox="0 0 512 512" style="enable-background:new 0 0 512 512;" xml:space="preserve">
<style type="text/css">
	.st0{fill:#9BC9FF;}
	.st1{fill:none;}
	.st2{fill:#1E81CE;}
</style>
<g id="Design">
	<path class="st0" d="M467,381.5l-53.5-199.6c-7.1,8.9-17.2,15-28.5,17.2l51.1,190.6c1.9,8.6,10.4,14.1,19,12.3
		c8.6-1.9,14.1-10.4,12.3-19C467.3,382.5,467.2,382,467,381.5z"/>
	<path class="st0" d="M338.5,181.9L285,381.5c-2.7,8.4,1.9,17.4,10.3,20.1c8.4,2.7,17.4-1.9,20.1-10.3c0.2-0.5,0.3-1,0.4-1.5
		L367,199.1C355.7,197,345.7,190.9,338.5,181.9L338.5,181.9z"/>
	<path class="st0" d="M392,106.8V40c-0.1-8.8-7.2-15.9-16-16c-8.8,0-16,7.2-16,16v66.8C370.3,103.1,381.7,103.1,392,106.8z"/>
	<path class="st0" d="M280,24h-32h-32h-32h-32h-32H88H56H24v96h288V24H280z"/>
	<path class="st0" d="M56,400l32,32V232H56V400z"/>
	<path class="st0" d="M56,232H24v200l32-32V232z"/>
	<path class="st0" d="M24,232h32h32v-32H24V232z"/>
	<path class="st1" d="M168,304h80v64h-80V304z"/>
	<path class="st1" d="M168,200h80v64h-80V200z"/>
	<g>
		<path class="st0" d="M367,199.1c6,1.2,12.1,1.2,18.1,0c26-5,43.1-30.1,38.1-56.1c-3.2-16.8-15.1-30.6-31.2-36.2
			c-10.3-3.7-21.7-3.7-32,0c-25,8.8-38.1,36.2-29.3,61.2C336.4,184.1,350.2,195.9,367,199.1L367,199.1z M376,136c8.8,0,16,7.2,16,16
			s-7.2,16-16,16s-16-7.2-16-16S367.2,136,376,136z"/>
		<path class="st0" d="M168,200h80v64h-80V200z"/>
		<path class="st0" d="M168,304h80v64h-80V304z"/>
		<path class="st0" d="M47.1,449.1c-2.2,0.5-4.4,1.2-6.5,2C42.7,450.2,44.9,449.6,47.1,449.1z"/>
		<path class="st0" d="M71.4,451.1c-2.1-0.9-4.3-1.5-6.5-2C67.1,449.6,69.3,450.2,71.4,451.1z"/>
		<path class="st0" d="M63.1,448.7c-2.4-0.5-4.7-0.7-7.1-0.7C58.4,448,60.8,448.3,63.1,448.7z"/>
		<path class="st0" d="M56,448c-2.4,0-4.8,0.3-7.1,0.7C51.2,448.3,53.6,448,56,448z"/>
		<path class="st0" d="M72.2,451.5c-0.3-0.1-0.5-0.3-0.8-0.4C71.7,451.2,71.9,451.4,72.2,451.5z"/>
		<path class="st0" d="M64.9,449.1c-0.6-0.1-1.2-0.2-1.8-0.4C63.7,448.8,64.3,448.9,64.9,449.1z"/>
		<path class="st0" d="M48.9,448.7c-0.6,0.1-1.2,0.2-1.8,0.4C47.7,448.9,48.3,448.8,48.9,448.7z"/>
		<path class="st0" d="M40.6,451.1c-0.3,0.1-0.5,0.3-0.8,0.4C40.1,451.4,40.3,451.2,40.6,451.1z"/>
		<path class="st0" d="M75.8,453.4c-1.2-0.7-2.3-1.4-3.5-1.9c-0.3-0.1-0.5-0.3-0.8-0.4c-2.1-0.9-4.3-1.5-6.5-2
			c-0.6-0.1-1.2-0.2-1.8-0.4c-2.4-0.5-4.8-0.7-7.2-0.7c-2.4,0-4.8,0.3-7.1,0.7c-0.6,0.1-1.2,0.2-1.8,0.4c-2.2,0.5-4.4,1.2-6.5,2
			c-0.3,0.1-0.5,0.3-0.8,0.4c-1.2,0.6-2.4,1.3-3.5,1.9L56,488L75.8,453.4z"/>
	</g>
	<path class="st2" d="M312,16H24c-4.4,0-8,3.6-8,8v96c0,4.4,3.6,8,8,8h288c4.4,0,8-3.6,8-8V24C320,19.6,316.4,16,312,16z M304,112
		H32V32h16v32h16V32h16v32h16V32h16v32h16V32h16v32h16V32h16v32h16V32h16v32h16V32h16v32h16V32h16v32h16V32h16V112z"/>
	<path class="st2" d="M248,272h-80c-4.4,0-8-3.6-8-8v-64c0-4.4,3.6-8,8-8h80c4.4,0,8,3.6,8,8v64C256,268.4,252.4,272,248,272z
		 M176,256h64v-48h-64V256z"/>
	<path class="st2" d="M248,376h-80c-4.4,0-8-3.6-8-8v-64c0-4.4,3.6-8,8-8h80c4.4,0,8,3.6,8,8v64C256,372.4,252.4,376,248,376z
		 M176,360h64v-48h-64V360z"/>
	<path class="st2" d="M248,416h-80c-4.4,0-8-3.6-8-8s3.6-8,8-8h80c4.4,0,8,3.6,8,8S252.4,416,248,416z"/>
	<path class="st2" d="M248,448h-80c-4.4,0-8-3.6-8-8s3.6-8,8-8h80c4.4,0,8,3.6,8,8S252.4,448,248,448z"/>
	<path class="st2" d="M56,144c-22.1,0-40,17.9-40,40v248c0,1.4,0.4,2.8,1.1,4l32,56c2.2,3.8,7.1,5.2,10.9,3c1.2-0.7,2.3-1.7,3-3
		l32-56c0.7-1.2,1.1-2.6,1.1-4V184C96,161.9,78.1,144,56,144z M80,224H32v-16h48V224z M32,240h16v156.7l-16,16V240z M56,411.3l22,22
		l-5.6,9.7c-10.7-3.8-22.3-3.8-32.9,0l-5.6-9.7L56,411.3z M64,396.7V240h16v172.7L64,396.7z M32,184c0-13.3,10.7-24,24-24
		s24,10.7,24,24v8H32V184z M56,471.9l-8.4-14.7c5.5-1.4,11.3-1.4,16.8,0L56,471.9z"/>
	<path class="st2" d="M376,176c13.3,0,24-10.7,24-24s-10.7-24-24-24s-24,10.7-24,24S362.7,176,376,176z M376,144c4.4,0,8,3.6,8,8
		s-3.6,8-8,8s-8-3.6-8-8S371.6,144,376,144z"/>
	<path class="st2" d="M488,144h-56.6c-2.7-18.5-14.5-34.5-31.4-42.5V40c-0.1-13.2-10.8-23.9-24-24c-13.3,0-24,10.7-24,24v61.5
		c-16.9,8.1-28.7,24-31.4,42.5H120c-4.4,0-8,3.6-8,8v336c0,4.4,3.6,8,8,8h368c4.4,0,8-3.6,8-8V152C496,147.6,492.4,144,488,144z
		 M453.7,393.4L453.7,393.4c-2.1,0.5-4.3,0.3-6.1-0.8c-1.8-1.1-3.2-2.8-3.7-4.9l-49.1-183c5.2-1.9,10-4.5,14.5-7.7l50,186.6
		C460.4,387.8,457.9,392.2,453.7,393.4L453.7,393.4z M376,264c-4.4,0-8,3.6-8,8v7.5c-4.7-0.3-9.3-0.8-13.9-1.6l18.8-70.1
		c1,0.1,2,0.2,3.1,0.2s2.1-0.1,3.1-0.2l18.8,70.1c-4.6,0.8-9.2,1.3-13.9,1.6V272C384,267.6,380.4,264,376,264z M368,40
		c0-4.4,3.6-8,8-8c2.2,0,4.2,0.9,5.7,2.4c1.5,1.5,2.3,3.5,2.3,5.6v56.6c-5.3-0.9-10.7-0.9-16,0V40z M376,112c22.1,0,40,17.9,40,40
		s-17.9,40-40,40s-40-17.9-40-40C336,129.9,353.9,112,376,112z M342.7,196.9c4.4,3.3,9.3,5.9,14.5,7.7l-49.1,183.1
		c-1.1,4.2-5.4,6.7-9.7,5.7h-0.1c-4.2-1.2-6.7-5.5-5.7-9.8L342.7,196.9z M480,480H128V160h192.6c1.2,8.4,4.3,16.5,9.1,23.5
		l-52.5,195.9c-2.5,9.8,1.3,20.1,9.6,25.8l-6.6,24.6c-1.1,4.3,1.4,8.7,5.7,9.8c0,0,0,0,0,0c0.7,0.2,1.4,0.3,2.1,0.3
		c3.6,0,6.8-2.4,7.7-5.9l6.6-24.7c10.1-0.6,18.7-7.7,21.2-17.6l26.3-98.2c6,1.1,12,1.8,18.1,2.2v8.2c0,4.4,3.6,8,8,8s8-3.6,8-8v-8.2
		c6.1-0.3,12.1-1.1,18.1-2.2l26.3,98.2c2.5,9.9,11.1,17,21.2,17.6l6.6,24.7c0.9,3.5,4.1,5.9,7.7,5.9c0.7,0,1.4-0.1,2.1-0.3
		c4.3-1.1,6.8-5.5,5.7-9.8c0,0,0,0,0,0l-6.6-24.6c8.3-5.7,12.2-16.1,9.6-25.9l-52.5-195.9c4.8-7,7.9-15.1,9.1-23.5H480V480z"/>
</g>
</svg>
