<?xml version="1.0" encoding="utf-8"?>
<!-- Generator: Adobe Illustrator 24.3.0, SVG Export Plug-In . SVG Version: 6.00 Build 0)  -->
<svg version="1.1" id="圖層_1" xmlns="http://www.w3.org/2000/svg" xmlns:xlink="http://www.w3.org/1999/xlink" x="0px" y="0px"
	 viewBox="0 0 512 512" style="enable-background:new 0 0 512 512;" xml:space="preserve">
<style type="text/css">
	.st0{fill:#9BC9FF;}
	.st1{fill:#1E81CE;}
</style>
<g id="Working_hour">
	<g>
		<path class="st0" d="M72,112c-8.8,0-16,7.2-16,16C56,119.2,63.2,112,72,112z"/>
		<path class="st0" d="M488,128c0-8.8-7.2-16-16-16C480.8,112,488,119.2,488,128z"/>
		<path class="st0" d="M208,56c0-4.4,3.6-8,8-8h112c4.4,0,8,3.6,8,8v56h24V56c0-17.7-14.3-32-32-32H216c-17.7,0-32,14.3-32,32v56h24
			V56z"/>
		<path class="st0" d="M136,376c4.4,0,8-3.6,8-8s-3.6-8-8-8s-8,3.6-8,8c0,1.4,0.4,2.8,1.2,3.9C130.6,374.4,133.2,376,136,376z"/>
		<path class="st0" d="M472,112H72c-8.8,0-16,7.2-16,16v32l80,64h120v-24c0-4.4,3.6-8,8-8h16c4.4,0,8,3.6,8,8v24h120l80-64v-32
			C488,119.2,480.8,112,472,112z"/>
		<path class="st0" d="M288,224v40c0,4.4-3.6,8-8,8h-16c-4.4,0-8-3.6-8-8v-40H136l-80-64v118.7c49.1-44.3,124.8-40.4,169.2,8.7
			c27.5,30.5,37.5,73,26.4,112.6H472c8.8,0,16-7.2,16-16V160l-80,64H288z"/>
		<path class="st0" d="M56,368v-36.2c-5.2,11.3-8,23.7-8,36.2H56z"/>
		<path class="st0" d="M136,376c4.4,0,8-3.6,8-8s-3.6-8-8-8s-8,3.6-8,8c0,1.4,0.4,2.8,1.2,3.9l6.8-3.9l-6.8,3.9
			C130.6,374.4,133.2,376,136,376z"/>
	</g>
	<path class="st1" d="M472,104h-24V88c0-8.8-7.2-16-16-16h-16c-8.8,0-16,7.2-16,16v16h-32V56c0-22.1-17.9-40-40-40H216
		c-22.1,0-40,17.9-40,40v48h-32V88c0-8.8-7.2-16-16-16h-16c-8.8,0-16,7.2-16,16v16H72c-13.3,0-24,10.7-24,24v147.3
		c-51.3,48.6-53.4,129.6-4.8,180.8s129.6,53.4,180.8,4.8c15.4-14.6,26.9-32.8,33.5-52.9H472c13.3,0,24-10.7,24-24V128
		C496,114.7,485.3,104,472,104z M416,88h16v16h-16V88z M192,56c0-13.3,10.7-24,24-24h112c13.3,0,24,10.7,24,24v48h-8V56
		c0-8.8-7.2-16-16-16H216c-8.8,0-16,7.2-16,16v48h-8V56z M328,56v48H216V56H328z M112,88h16v16h-16V88z M136,480
		c-61.9,0-112-50.1-112-112s50.1-112,112-112s112,50.1,112,112C247.9,429.8,197.8,479.9,136,480z M480,384c0,4.4-3.6,8-8,8H261.7
		c13.3-69.4-32.1-136.4-101.4-149.7c-33.5-6.4-68.1,0.8-96.2,20v-85.6l67,53.6c1.4,1.1,3.2,1.7,5,1.7h112v32c0,8.8,7.2,16,16,16h16
		c8.8,0,16-7.2,16-16v-32h112c1.8,0,3.6-0.6,5-1.8l67-53.6V384z M280,232v32h-16v-32H280z M264,216v-16h16v16H264z M480,156.2
		L405.2,216H296v-16c0-8.8-7.2-16-16-16h-16c-8.8,0-16,7.2-16,16v16H138.8L64,156.2V128c0-4.4,3.6-8,8-8h400c4.4,0,8,3.6,8,8V156.2z
		"/>
	<path class="st1" d="M136,272c-53,0-96,43-96,96s43,96,96,96s96-43,96-96C231.9,315,189,272.1,136,272z M182.7,432.8l-3.7-6.5
		c-2.2-3.8-7.1-5.2-10.9-3s-5.2,7.1-3,10.9c0,0,0,0.1,0.1,0.1l3.8,6.5c-7.8,3.6-16.2,5.8-24.8,6.7V440c0-4.4-3.6-8-8-8s-8,3.6-8,8
		v7.6c-8.6-0.9-17-3.1-24.8-6.7l3.8-6.5c2.2-3.8,0.8-8.7-3-10.9c-3.8-2.2-8.6-0.9-10.9,2.9l-3.7,6.5c-7-5-13.1-11.2-18.2-18.2
		l6.5-3.7c3.8-2.2,5.2-7.1,3-10.9c-2.2-3.8-7.1-5.2-10.9-3c0,0-0.1,0-0.1,0.1l-6.5,3.8c-3.6-7.8-5.8-16.2-6.7-24.8H64
		c4.4,0,8-3.6,8-8s-3.6-8-8-8h-7.6c0.9-8.6,3.1-17,6.7-24.8l6.5,3.8c3.8,2.2,8.7,1,10.9-2.9c2.2-3.8,1-8.7-2.9-10.9
		c0,0-0.1,0-0.1-0.1l-6.4-3.8c5-7,11.2-13.1,18.1-18.1l3.7,6.5c2.2,3.8,7.1,5.2,10.9,3s5.2-7.1,3-10.9c0,0,0-0.1-0.1-0.1l-3.8-6.5
		c7.8-3.6,16.2-5.8,24.8-6.7v7.6c0,4.4,3.6,8,8,8s8-3.6,8-8v-7.6c8.6,0.9,17,3.1,24.8,6.7l-3.8,6.5c-2.2,3.8-1,8.7,2.9,10.9
		c3.8,2.2,8.7,1,10.9-2.9c0,0,0-0.1,0.1-0.1l3.7-6.5c7,5,13.1,11.2,18.2,18.2l-6.5,3.7c-3.8,2.2-5.2,7.1-3,10.9
		c2.2,3.8,7.1,5.2,10.9,3c0,0,0.1,0,0.1-0.1l6.5-3.8c3.6,7.8,5.8,16.2,6.7,24.8H208c-4.4,0-8,3.6-8,8s3.6,8,8,8h7.6
		c-0.9,8.6-3.1,17-6.7,24.8l-6.5-3.8c-3.8-2.2-8.7-0.8-10.9,3c-2.2,3.8-0.9,8.6,2.9,10.9l6.5,3.7
		C195.8,421.6,189.7,427.8,182.7,432.8L182.7,432.8z"/>
	<path class="st1" d="M144,354.2V320c0-4.4-3.6-8-8-8s-8,3.6-8,8v34.2c-4.9,2.8-8,8.1-8,13.8l-15.7,9.1c-3.8,2.2-5.2,7.1-3,10.9
		c2.2,3.8,7.1,5.2,10.9,3c0,0,0.1,0,0.1-0.1l15.8-9.1c2.4,1.4,5.1,2.2,7.9,2.2c8.8,0,16-7.1,16-15.9C152,362.4,149,357.1,144,354.2
		L144,354.2z"/>
</g>
</svg>
