<?xml version="1.0" encoding="utf-8"?>
<!-- Generator: Adobe Illustrator 24.3.0, SVG Export Plug-In . SVG Version: 6.00 Build 0)  -->
<svg version="1.1" id="圖層_1" xmlns="http://www.w3.org/2000/svg" xmlns:xlink="http://www.w3.org/1999/xlink" x="0px" y="0px"
	 viewBox="0 0 512 512" style="enable-background:new 0 0 512 512;" xml:space="preserve">
<style type="text/css">
	.st0{fill:#9BC9FF;}
	.st1{fill:#1E81CE;}
</style>
<g id="Speed">
	<path class="st0" d="M256,24C127.8,24,24,127.9,24,256.1c0,61.5,24.4,120.5,67.9,164l34-34C54,314.2,54,197.7,125.9,125.9
		s188.3-71.9,260.2-0.1S458,314.2,386.1,386c0,0,0,0-0.1,0.1l34,34c90.6-90.6,90.5-237.6-0.1-328.2C376.5,48.4,317.5,24,256,24z"/>
	<path class="st0" d="M160,408h192v80H160V408z"/>
	<path class="st0" d="M272,228.3c-15.3-8.8-99.1-20.3-99.1-20.3s51.8,66.9,67.1,75.7c15.2,8.9,34.9,3.8,43.8-11.4
		c8.9-15.2,3.8-34.9-11.4-43.8C272.2,228.4,272.1,228.4,272,228.3L272,228.3z M262.9,260c-2.2,3.8-7.1,5.1-10.9,2.9
		c-3.8-2.2-5.1-7.1-2.9-10.9c2.2-3.8,7.1-5.1,10.9-2.9c0,0,0,0,0,0C263.8,251.3,265.1,256.2,262.9,260z"/>
	<circle class="st0" cx="256.1" cy="256" r="8"/>
	<g>
		<path class="st1" d="M352,496H160c-4.4,0-8-3.6-8-8v-80c0-4.4,3.6-8,8-8h192c4.4,0,8,3.6,8,8v80C360,492.4,356.4,496,352,496z
			 M168,480h176v-64H168V480z"/>
		<path class="st1" d="M363.9,309.1c-3.8-2.2-8.7-0.8-10.9,3c-2.2,3.8-0.9,8.6,2.9,10.9l27.6,15.9l0.1,0.1c3.8,2.2,8.7,0.9,10.9-2.9
			c44.3-76.5,18.2-174.4-58.3-218.6s-174.4-18.2-218.6,58.3c-28.7,49.6-28.7,110.8,0,160.4c2.2,3.8,7.1,5.1,10.9,2.9
			c0.1,0,0.1-0.1,0.2-0.2l27.4-15.8c3.8-2.2,5.2-7.1,3-10.9c-2.2-3.8-7.1-5.2-10.9-3c0,0-0.1,0-0.1,0.1l-20.5,11.8
			c-9-17.7-14.2-37.1-15.4-56.9H136c4.4,0,8-3.6,8-8s-3.6-8-8-8h-23.6c1.1-19.8,6.2-39.2,15.2-56.9l20.5,11.8
			c3.8,2.2,8.7,1,10.9-2.9c2.2-3.8,1-8.7-2.9-10.9c0,0-0.1,0-0.1-0.1l-20.5-11.8c10.9-16.6,25.1-30.8,41.7-41.6l11.8,20.5
			c2.2,3.8,7.1,5.2,10.9,3c3.8-2.2,5.2-7.1,3-10.9c0,0,0-0.1-0.1-0.1l-11.8-20.5c17.7-9,37.1-14.1,56.9-15.2V136c0,4.4,3.6,8,8,8
			s8-3.6,8-8v-23.6c19.8,1.1,39.2,6.2,56.9,15.2l-11.8,20.5c-2.2,3.8-1,8.7,2.9,10.9s8.7,1,10.9-2.9c0,0,0-0.1,0.1-0.1l11.8-20.5
			c16.6,10.9,30.8,25.1,41.7,41.6l-20.5,11.8c-3.8,2.2-5.2,7.1-3,10.9s7.1,5.2,10.9,3c0,0,0.1,0,0.1-0.1l20.5-11.8
			c9,17.7,14.1,37.1,15.2,56.9H376c-4.4,0-8,3.6-8,8s3.6,8,8,8h23.7c-1.1,19.8-6.3,39.2-15.3,56.9L363.9,309.1z"/>
		<path class="st1" d="M256,16C123.4,16,16,123.5,16,256.1c0,63.6,25.3,124.7,70.3,169.7c3.1,3.1,8.2,3.1,11.3,0l34-34
			c0.4-0.4,0.8-0.9,1-1.5c2-3.1,1.6-7.2-1-9.8c-68.8-68.7-68.8-180.1-0.1-248.9s180.1-68.8,248.9-0.1s68.8,180.1,0.1,248.9
			c0,0-0.1,0.1-0.1,0.1c-2.6,2.6-3,6.7-1,9.8c0.2,0.6,0.6,1.1,1,1.5l34,34c3.1,3.1,8.2,3.1,11.3,0c93.7-93.8,93.7-245.7-0.1-339.5
			C380.6,41.3,319.6,16,256,16L256,16z M419.9,408.6l-22.7-22.7c71.8-78,66.8-199.5-11.2-271.3s-199.5-66.8-271.3,11.2
			c-67.7,73.5-67.7,186.6,0,260.1l-22.7,22.7C7.8,318.1,12.8,176.3,103.4,92s232.3-79.2,316.6,11.3c38.6,41.5,60.1,96,60.1,152.7
			C480.2,312.7,458.7,367.3,419.9,408.6z"/>
		<path class="st1" d="M352,368H160c-4.4,0-8,3.6-8,8s3.6,8,8,8h192c4.4,0,8-3.6,8-8S356.4,368,352,368z"/>
		<path class="st1" d="M264,242.1c-7.6-4.5-17.4-1.9-21.9,5.7c-4.5,7.6-1.9,17.4,5.7,21.9c0.1,0,0.1,0.1,0.2,0.1
			c2.4,1.4,5.2,2.2,8,2.1c8.8,0,16-7.2,16-16C272,250.3,268.9,245,264,242.1z"/>
		<path class="st1" d="M276,221.4c-16.2-9.4-93.3-20.1-102.1-21.3c-4.4-0.6-8.4,2.5-9,6.9c-0.3,2.1,0.3,4.2,1.6,5.9
			c5.4,7,53.3,68.4,69.5,77.7c6.1,3.5,12.9,5.4,19.9,5.4c3.5,0,7-0.5,10.4-1.4c21.3-5.7,34-27.7,28.3-49
			C291.9,235.4,285.2,226.7,276,221.4L276,221.4z M276.8,268c-6.6,11.5-21.3,15.4-32.8,8.8c0,0,0,0,0,0c-8.2-4.8-32.9-33.7-52.4-58
			c30.8,4.7,68.2,11.6,76.4,16.4C279.5,241.9,283.4,256.5,276.8,268L276.8,268z"/>
	</g>
</g>
</svg>
