<?xml version="1.0" encoding="utf-8"?>
<!-- Generator: Adobe Illustrator 24.3.0, SVG Export Plug-In . SVG Version: 6.00 Build 0)  -->
<svg version="1.1" id="圖層_1" xmlns="http://www.w3.org/2000/svg" xmlns:xlink="http://www.w3.org/1999/xlink" x="0px" y="0px"
	 viewBox="0 0 512 512" style="enable-background:new 0 0 512 512;" xml:space="preserve">
<style type="text/css">
	.st0{fill:#9BC9FF;}
	.st1{fill:none;}
	.st2{fill:#1E81CE;}
</style>
<g id="Solution">
	<path class="st0" d="M303.2,75.5l-50.9-50.9l-56.6,56.6c3.1-21.9-12.1-42.1-33.9-45.3S119.6,48,116.5,69.8
		c-3.1,21.9,12.1,42.1,33.9,45.3c3.8,0.5,7.6,0.5,11.4,0l-56.6,56.6l56.6,56.6c-21.9-3.1-42.1,12.1-45.3,33.9
		c-3.1,21.9,12.1,42.1,33.9,45.3s42.1-12.1,45.3-33.9c0.5-3.8,0.5-7.6,0-11.4l28.3,28.3V264c0-17.7,14.3-32,32-32s32,14.3,32,32
		v19.1l20.9-20.9c-3.1,21.9,12.1,42.1,33.9,45.3c21.9,3.1,42.1-12.1,45.3-33.9s-12.1-42.1-33.9-45.3c-3.8-0.5-7.6-0.5-11.4,0
		l56.6-56.6l-50.9-50.9c-3.1,21.9-23.4,37-45.3,33.9s-37-23.4-33.9-45.3C271.8,91.9,285.6,78,303.2,75.5L303.2,75.5z"/>
	<path class="st1" d="M308.9,262.2l-1.8,1.8h1.6C308.8,263.4,308.8,262.8,308.9,262.2z"/>
	<g>
		<path class="st2" d="M405,166l-50.9-50.9c-3.1-3.1-8.2-3.2-11.3,0c-1.2,1.2-2,2.8-2.3,4.6c-2.5,17.5-18.7,29.6-36.2,27.1
			c-17.5-2.5-29.6-18.7-27.1-36.2c2-14.1,13.1-25.1,27.1-27.1c4.4-0.6,7.4-4.7,6.8-9c-0.2-1.7-1-3.3-2.3-4.6L258,19
			c-3.1-3.1-8.2-3.1-11.3,0l-44.2,44.2c-6.8-25.6-33.2-40.8-58.8-34s-40.8,33.2-34,58.8c4.4,16.6,17.4,29.5,34,34L99.5,166
			c-3.1,3.1-3.1,8.2,0,11.3l44.2,44.2c-25.6,6.9-40.8,33.2-33.9,58.8c3.9,14.4,14.3,26.2,28.1,31.9l-18.7,53.9
			c-5,11.3-4.5,24.4,1.4,35.3l28.1,66.4c0.1,0.3,0.2,0.5,0.4,0.7c2,3.6,3,7.6,3,11.8v7.7c0,4.4,3.6,8,8,8s8-3.6,8-8v-7.7
			c0-6.7-1.7-13.2-4.8-19.1l-28.1-66.4c-0.1-0.3-0.2-0.5-0.4-0.8c-3.7-6.8-4-14.9-0.7-22l19.6-56.3c0.8,0,1.7,0.1,2.5,0.1
			c21.7,0,40.7-14.6,46.3-35.5l13.6,13.5V376c0,4.4,3.6,8,8,8s8-3.6,8-8V264c0-13.3,10.7-24,24-24c13.3,0,24,10.7,24,24v96.9
			c0,11.2,2.6,22.2,7.6,32.2l2.9,5.9c7.8,15.8,7.8,34.3,0,50.1l-8,16c-1.7,3.3-2.5,7-2.5,10.7V488c0,4.4,3.6,8,8,8s8-3.6,8-8v-12.2
			c0-1.2,0.3-2.5,0.8-3.6l8-16c10.1-20.3,10.1-44.1,0-64.4l-2.9-5.9c-2.9-5.8-4.7-12-5.5-18.4c10.5,10.5,24.8,16.4,39.6,16.4
			c13.3,0,24-10.7,24-24v-45.6c25.7-6.4,41.4-32.4,35-58.1c-4.2-17-17.3-30.3-34.2-34.8l44.1-44.2C408.1,174.2,408.1,169.1,405,166
			L405,166z M336,368c-22.1,0-40-17.9-40-40v-41.6l6.1-6.1c5.2,19.4,21.9,33.5,41.9,35.4V360C344,364.4,340.4,368,336,368z
			 M337.1,222.7c-3.1,3.1-3.2,8.2-0.1,11.3c1.8,1.8,4.4,2.7,6.9,2.3c17.5-2.5,33.7,9.7,36.2,27.2s-9.7,33.7-27.2,36.2
			s-33.7-9.7-36.2-27.2c-0.4-3-0.4-6,0-9c0.7-4.4-2.4-8.4-6.7-9.1c-2.5-0.4-5.1,0.5-6.9,2.3l-7.2,7.2c0-22.1-18-40-40.1-39.9
			s-40,18-39.9,40.1l0,0v7.2l-14.7-14.7c-3.1-3.1-8.2-3.2-11.3-0.1c-1.8,1.8-2.7,4.4-2.3,6.9c2.5,17.5-9.7,33.7-27.2,36.2
			c-17.5,2.5-33.7-9.7-36.2-27.2c-2.5-17.5,9.7-33.7,27.2-36.2c3-0.4,6-0.4,9,0c4.4,0.7,8.4-2.3,9.1-6.7c0.4-2.5-0.5-5.1-2.3-6.9
			l-50.9-50.9l50.9-50.9c3.1-3.1,3.2-8.2,0.1-11.3c-1.8-1.8-4.4-2.7-6.9-2.3c-17.5,2.4-33.7-9.8-36.1-27.3c-1.4-9.9,2-19.9,9-27
			c12.7-12.1,32.6-12.1,45.2,0c7.1,7.1,10.4,17.2,9,27.1c-0.7,4.4,2.4,8.4,6.7,9.1c2.5,0.4,5.1-0.5,6.9-2.3l51-50.9l35.8,35.9
			c-23.9,11.4-34.1,40.1-22.6,64c11.4,23.9,40.1,34.1,64,22.6c9.9-4.7,17.9-12.7,22.6-22.6l35.9,35.8L337.1,222.7z"/>
		<path class="st2" d="M488,184h-48c-4.4,0-8-3.6-8-8s3.6-8,8-8h48c4.4,0,8,3.6,8,8S492.4,184,488,184z"/>
		<path class="st2" d="M431.4,92c-4.4,0-8-3.6-8-8c0-2.9,1.5-5.5,4-6.9l41.6-24c3.8-2.2,8.7-0.8,10.9,3c2.2,3.8,0.9,8.6-2.9,10.9
			l-41.6,24C434.1,91.6,432.8,92,431.4,92z"/>
		<path class="st2" d="M472.9,300c-1.4,0-2.8-0.4-4-1.1l-41.6-24c-3.8-2.2-5.2-7.1-3-10.9c2.2-3.8,7.1-5.2,10.9-3c0,0,0.1,0,0.1,0.1
			l41.6,24c3.8,2.2,5.1,7.1,2.9,10.9C478.4,298.5,475.8,300,472.9,300L472.9,300z"/>
		<path class="st2" d="M72,184H24c-4.4,0-8-3.6-8-8s3.6-8,8-8h48c4.4,0,8,3.6,8,8S76.4,184,72,184z"/>
		<path class="st2" d="M80.6,92c-1.4,0-2.8-0.4-4-1.1L35,66.9c-3.8-2.2-5.1-7.1-2.9-10.9c2.2-3.8,7.1-5.1,10.9-2.9l41.6,24
			c3.8,2.2,5.1,7.1,2.9,10.9C86.1,90.5,83.5,92,80.6,92z"/>
		<path class="st2" d="M39.1,300c-4.4,0-8-3.6-8-8c0-2.9,1.5-5.5,4-6.9l41.6-24c3.8-2.2,8.7-1,10.9,2.9c2.2,3.8,1,8.7-2.9,10.9
			c0,0-0.1,0-0.1,0.1l-41.6,24C41.9,299.6,40.5,300,39.1,300L39.1,300z"/>
	</g>
</g>
</svg>
