<?xml version="1.0" encoding="utf-8"?>
<!-- Generator: Adobe Illustrator 24.3.0, SVG Export Plug-In . SVG Version: 6.00 Build 0)  -->
<svg version="1.1" id="ed352ff4-7a14-4498-84af-0dc7b5b1bcd0"
	 xmlns="http://www.w3.org/2000/svg" xmlns:xlink="http://www.w3.org/1999/xlink" x="0px" y="0px" viewBox="0 0 800 800"
	 style="enable-background:new 0 0 800 800;" xml:space="preserve">
<style type="text/css">
	.st0{fill:#F2F2F2;}
	.st1{fill:#FFFFFF;}
	.st2{fill:#3F3D56;}
	.st3{fill:#CCCCCC;}
	.st4{fill:#1565C0;}
	.st5{fill:#FF6584;}
	.st6{fill:#FFB8B8;}
	.st7{fill:#2F2E41;}
</style>
<g>
	<path class="st0" d="M117,665.1C53.2,648.5,9,590.4,10,524.4c0.1-8,1-16.1,4.3-23.4s9.6-13.5,17.4-15.2c8.5-1.9,17.5,2,23.8,7.9
		c6.3,6,10.5,13.9,14.3,21.7c23,47.2,40.6,97.8,47.1,149.9L117,665.1z"/>
	<path class="st1" d="M27.9,487.4L44,524.1l16.2,36.7c5.1,11.6,10.2,23.3,15.5,34.8c5.2,11.4,10.7,22.8,16.4,34
		c5.8,11.2,11.9,22.2,18.6,32.8c0.8,1.3,1.7,2.7,2.5,4c0.6,0.9,2,0.1,1.5-0.9c-6.8-10.6-13-21.5-18.9-32.6
		c-5.9-11.1-11.4-22.5-16.7-33.9c-5.3-11.5-10.4-23.1-15.5-34.6c-5.4-12.2-10.7-24.4-16.1-36.6l-16.2-36.7l-2-4.6
		C28.9,485.5,27.4,486.4,27.9,487.4L27.9,487.4z"/>
	<path class="st0" d="M110.3,665.3c-37.6,8.6-76.3-9.6-93.5-44.1c-2.1-4.2-3.9-8.6-4.1-13.3s1.3-9.6,4.9-12.6
		c3.9-3.3,9.6-3.7,14.5-2.3s9.2,4.4,13.3,7.4c24.7,18.3,47.5,39.8,64.9,65.1L110.3,665.3z"/>
	<path class="st1" d="M16,597.2l18.3,14.7l18.3,14.7c5.8,4.7,11.6,9.3,17.4,13.9c5.8,4.5,11.7,9,17.7,13.2c6,4.2,12.2,8.3,18.5,12
		c0.8,0.5,1.6,0.9,2.4,1.4c0.6,0.3,1.1-0.5,0.5-0.8c-6.4-3.7-12.6-7.6-18.6-11.8c-6.1-4.2-12-8.6-17.8-13.1
		c-5.9-4.5-11.6-9.2-17.4-13.8c-6.1-4.9-12.2-9.8-18.2-14.6l-18.3-14.7l-2.3-1.8C16.1,595.9,15.5,596.8,16,597.2L16,597.2z"/>
	<path class="st2" d="M782.9,131.8H291.5c-3.9,0-7.1,3.2-7.1,7.1v333c0,3.9,3.2,7.1,7.1,7.1h491.5c3.9,0,7.1-3.2,7.1-7.1v-333
		C790,135,786.8,131.8,782.9,131.8z M788,471.9c0,2.8-2.3,5-5,5H291.5c-2.8,0-5-2.3-5-5v-333c0-2.8,2.3-5,5-5h491.5c2.8,0,5,2.3,5,5
		V471.9z"/>
	<rect x="285.4" y="160.1" class="st2" width="503.6" height="2"/>
	<circle class="st2" cx="302.6" cy="147" r="6.1"/>
	<circle class="st2" cx="320" cy="147" r="6.1"/>
	<circle class="st2" cx="337.4" cy="147" r="6.1"/>
	<path class="st3" d="M408.4,207h-84.8c-3.9,0-7.1-3.2-7.1-7.1s3.2-7.1,7.1-7.1h84.8c3.9,0,7.1,3.2,7.1,7.1S412.3,207,408.4,207z"/>
	<path class="st3" d="M524.5,241.3H323.6c-3.9,0-7.1-3.2-7.1-7.1s3.2-7.1,7.1-7.1h200.8c3.9,0,7.1,3.2,7.1,7.1
		S528.4,241.3,524.5,241.3L524.5,241.3z"/>
	<path class="st4" d="M589.3,255c-28.7,41.8-18,99,23.8,127.7c15.3,10.5,33.4,16.1,51.9,16.1v-80.2L589.3,255z"/>
	<path class="st3" d="M665,215.1c-30.3,0-58.6,14.9-75.7,39.9l75.7,63.6V215.1z"/>
	<path class="st2" d="M665,399.8h-1V214.1h1c51.3,0,92.8,41.6,92.8,92.8S716.3,399.8,665,399.8z M666,216.1v181.6
		c50.2-0.6,90.4-41.7,89.8-91.8C755.3,256.6,715.4,216.7,666,216.1z"/>
	<path class="st3" d="M382.2,437.6H365c-2.5,0-4.5-2-4.5-4.5v-49.4c0-2.5,2-4.5,4.5-4.5h17.2c2.5,0,4.5,2,4.5,4.5v49.4
		C386.7,435.6,384.7,437.6,382.2,437.6z"/>
	<path class="st5" d="M432.6,437.6h-17.2c-2.5,0-4.5-2-4.5-4.5v-72.7c0-2.5,2-4.5,4.5-4.5h17.2c2.5,0,4.5,2,4.5,4.5v72.7
		C437.2,435.6,435.1,437.6,432.6,437.6z"/>
	<path class="st4" d="M483.1,437.6h-17.2c-2.5,0-4.5-2-4.5-4.5v-92.8c0-2.5,2-4.5,4.5-4.5h17.2c2.5,0,4.5,2,4.5,4.5v92.8
		C487.6,435.6,485.6,437.6,483.1,437.6z"/>
	<path class="st2" d="M382.2,438.1H365c-2.8,0-5-2.3-5-5v-111c0-2.8,2.3-5,5-5h17.2c2.8,0,5,2.3,5,5v111
		C387.2,435.9,384.9,438.1,382.2,438.1z M365,319c-1.7,0-3,1.4-3,3v111c0,1.7,1.4,3,3,3h17.2c1.7,0,3-1.4,3-3v-111c0-1.7-1.4-3-3-3
		H365z"/>
	<path class="st2" d="M432.6,438.1h-17.2c-2.8,0-5-2.3-5-5v-111c0-2.8,2.3-5,5-5h17.2c2.8,0,5,2.3,5,5v111
		C437.7,435.9,435.4,438.1,432.6,438.1z M415.5,319c-1.7,0-3,1.4-3,3v111c0,1.7,1.4,3,3,3h17.2c1.7,0,3-1.4,3-3v-111
		c0-1.7-1.4-3-3-3H415.5z"/>
	<path class="st2" d="M483.1,438.1h-17.2c-2.8,0-5-2.3-5-5v-111c0-2.8,2.3-5,5-5h17.2c2.8,0,5,2.3,5,5v111
		C488.1,435.9,485.9,438.1,483.1,438.1z M465.9,319c-1.7,0-3,1.4-3,3v111c0,1.7,1.4,3,3,3h17.2c1.7,0,3-1.4,3-3v-111
		c0-1.7-1.4-3-3-3H465.9z"/>
	<path class="st6" d="M123.5,494.1c1.5-5.4-1.7-11-7.1-12.5c-0.6-0.2-1.2-0.3-1.8-0.3l-8.7-35l-12.7,13.8l10.2,31.1
		c-0.1,5.6,4.3,10.3,9.9,10.5C118.1,501.8,122.2,498.7,123.5,494.1L123.5,494.1z"/>
	<path class="st7" d="M100.2,483.4c-1.2-0.5-2.1-1.5-2.5-2.7l-14.5-44.6c-3.7-10.7-3.5-22.4,0.8-32.9l14-34.7
		c1.3-8,8.9-13.4,16.8-12c8,1.3,13.4,8.9,12,16.8c0,0,0,0,0,0l-19.3,56.1l6.7,45.7c0.2,1.9-0.8,3.7-2.6,4.5l-7.8,3.7
		c-0.8,0.4-1.8,0.5-2.7,0.4C100.9,483.6,100.5,483.5,100.2,483.4z"/>
	<polygon class="st6" points="171.8,655 184.2,655 190.1,607.3 171.8,607.3 	"/>
	<path class="st7" d="M208,666.5l-38.9,0l0,0l0-15l0,0l23.9,0C201.3,651.5,208,658.2,208,666.5L208,666.5L208,666.5z"/>
	<polygon class="st6" points="110.3,655 122.6,655 128.5,607.3 110.3,607.3 	"/>
	<path class="st7" d="M146.5,666.5l-38.9,0l0,0l0-15l0,0l23.9,0C139.8,651.5,146.5,658.2,146.5,666.5L146.5,666.5L146.5,666.5z"/>
	<path class="st7" d="M175.2,460.5l10.9,86.2c1.5,11.8,2.5,23.7,3.1,35.7l2.9,58.6c0.1,2.2-1.6,4.1-3.8,4.2c-0.1,0-0.1,0-0.2,0
		h-16.5c-2,0-3.7-1.5-4-3.4L152.8,544c-0.2-1.1-1.2-1.9-2.3-1.7c-0.8,0.1-1.5,0.8-1.7,1.6l-17.9,95.8c-0.4,1.8-1.9,3.1-3.7,3.2
		l-15.2,1c-2.2,0.2-4.2-1.5-4.3-3.7c0-0.1,0-0.3,0-0.4l4.9-157L175.2,460.5z"/>
	<circle class="st6" cx="127" cy="313" r="24.8"/>
	<path class="st4" d="M107.6,484.8c6.1,14.1,32.3,24.2,38.3,4c4.7-15.6,23.2-22.2,31.4-24.3c2.1-0.6,3.4-2.8,2.9-4.9l-22.9-89.9
		c-2.7-10.6-10.8-19.1-21.3-22.4c-18.2-5.6-37.4,6-40.4,24.7c-0.8,5.3-1.4,10.6-1.6,15.9C92.2,427.6,103.6,475.5,107.6,484.8z"/>
	<path class="st6" d="M189.7,484.7c-0.6-5.6-5.5-9.6-11.1-9.1c-0.6,0.1-1.2,0.2-1.8,0.3l-20.7-29.5l-6.9,17.4l20.7,25.4
		c1.9,5.3,7.7,8.1,13,6.2C187.4,493.8,190.2,489.4,189.7,484.7L189.7,484.7z"/>
	<path class="st7" d="M164.1,483.1c-1.3,0-2.5-0.6-3.3-1.6l-29.5-36.4c-7.3-8.6-11.3-19.7-11.1-31l0.6-37.4
		c-1.6-7.9,3.5-15.6,11.4-17.3c7.9-1.6,15.6,3.5,17.3,11.4c0,0,0,0,0,0l2.2,59.2l22.7,40.2c0.9,1.7,0.6,3.8-0.8,5.2l-5.9,6.3
		c-0.6,0.7-1.5,1.1-2.4,1.3C164.8,483,164.5,483.1,164.1,483.1z"/>
	<path class="st7" d="M108.2,333.3c1.9,1.1,4.4,0.5,5.5-1.4c0.2-0.3,0.3-0.6,0.4-1l0-0.1c0.4-1.9,0.1-3.8-0.1-5.8s0.1-4.1,1.4-5.5
		c2.5-2.6,6.8-1.2,10.4-1.9c4.3-1,7.2-5,6.8-9.3c-0.1-0.4-0.1-0.8-0.2-1.2c-0.8-3.6,1.5-7.2,5.1-8c0.6-0.1,1.2-0.2,1.8-0.1
		c3.6,0.2,7.4,1.3,10.4-1.4c2.2-2.1,2.9-5.4,1.8-8.3c-1.7-4.9-6.5-7.4-11.2-8.8c-11.8-3.4-24.6-1.3-34.7,5.7c-3,2.1-5.8,4.8-7.1,8.2
		c-1.3,3.4-0.7,7.8,2.2,10c-4.5,4.8-6.2,11.6-4.3,18C98,326.9,104.8,331.3,108.2,333.3z"/>
	<path class="st2" d="M288.6,668.2H21.2c-0.6,0-1-0.5-1-1s0.5-1,1-1h267.4c0.6,0,1,0.5,1,1S289.2,668.2,288.6,668.2z"/>
</g>
</svg>
