<?xml version="1.0" encoding="utf-8"?>
<!-- Generator: Adobe Illustrator 24.3.0, SVG Export Plug-In . SVG Version: 6.00 Build 0)  -->
<svg version="1.1" id="b849a2f0-74e0-42be-b224-12e88fa50e48"
	 xmlns="http://www.w3.org/2000/svg" xmlns:xlink="http://www.w3.org/1999/xlink" x="0px" y="0px" viewBox="0 0 800 800"
	 style="enable-background:new 0 0 800 800;" xml:space="preserve">
<style type="text/css">
	.st0{fill:#E6E6E6;}
	.st1{fill:#1565C0;}
	.st2{fill:#3F3D56;}
	.st3{fill:#FFB8B8;}
	.st4{fill:#2F2E41;}
</style>
<g>
	<path class="st0" d="M380,572.9h165.8c6.5,0,6.5-10.2,0-10.2H380C373.5,562.7,373.5,572.9,380,572.9z"/>
	<path class="st1" d="M335.2,351.9H170c-3.6,0-6.6,3-6.6,6.6v32.8c8.2,0.2,13.6,7,14.9,15.3v29.8h0.6c0.2,0,0.3,0.2,0.3,0.3v15.9
		c0,0.2-0.2,0.3-0.3,0.3h-0.6v95.7c0,2.1,0,5.9,0,5.9h157c3.6,0,6.6-3,6.6-6.6V358.5C341.9,354.8,338.9,351.9,335.2,351.9z"/>
	<path class="st1" d="M642.3,243.9v179.6h-289v-79.1c0-7.5-6.1-13.6-13.6-13.6h-54.2v-87H642.3z"/>
	<path class="st2" d="M660.1,448.8H353.5v-1.3h305.2V236.1c0-5.2-4.2-9.4-9.4-9.4H274.5c-5.2,0-9.4,4.2-9.4,9.4v94h-1.3v-94
		c0-5.8,4.7-10.6,10.7-10.7h374.9c5.8,0,10.6,4.7,10.7,10.7L660.1,448.8L660.1,448.8z"/>
	<path class="st2" d="M631.1,487H353.5v-1.3H631c15.3,0,27.8-12.5,27.8-27.8v-9.2H353.5v-1.3h306.5v10.4
		C660.1,474,647.1,487,631.1,487z"/>
	<path class="st2" d="M548.7,548.3c-15.4-14.8-25.7-34.2-28.9-61.4h-114c-1.2,25.3-11.3,44.3-29.5,61.3l-1.9,0.1
		c18.8-17,29.2-36.2,30.2-62v-0.6h116.3l0.1,0.6c3.2,27.5,13.6,47,29.4,62L548.7,548.3z"/>
	<path class="st2" d="M339.4,574.2H163.8v-1.3h175.6c7.5,0,13.6-6.1,13.6-13.6V344.7c0-7.5-6.1-13.6-13.6-13.6H163.8
		c-7.5,0-13.6,6.1-13.6,13.6v46.4H149v-46.4c0-8.1,6.6-14.7,14.8-14.8h175.6c8.1,0,14.7,6.6,14.8,14.8v214.7
		C354.2,567.6,347.6,574.2,339.4,574.2z"/>
	<path class="st2" d="M251.6,345.8c-2.4,0-4.2-1.9-4.2-4.2c0-2.4,1.9-4.2,4.2-4.2s4.2,1.9,4.2,4.2
		C255.9,343.8,254,345.8,251.6,345.8z M251.6,338.2c-1.8,0-3.2,1.4-3.2,3.2c0,1.8,1.4,3.2,3.2,3.2s3.2-1.4,3.2-3.2l0,0
		C254.9,339.7,253.4,338.2,251.6,338.2L251.6,338.2z"/>
	<path class="st2" d="M251.6,569.4c-3,0-5.4-2.5-5.4-5.4s2.5-5.4,5.4-5.4s5.4,2.5,5.4,5.4S254.6,569.4,251.6,569.4z M251.6,559.9
		c-2.3,0-4.2,1.9-4.2,4.2s1.9,4.2,4.2,4.2s4.2-1.9,4.2-4.2l0,0C255.8,561.7,254,559.9,251.6,559.9z"/>
	<path class="st2" d="M162.1,574.6h-58.1c-9.1,0-16.5-7.4-16.5-16.5V407.5c0-9.1,7.4-16.5,16.5-16.5h58.1c9.1,0,16.5,7.4,16.5,16.5
		v27c0.6,0.3,1,0.8,1,1.5v17.5c0,0.7-0.4,1.3-1,1.5v103.1C178.5,567.2,171.1,574.5,162.1,574.6z M103.9,392.3
		c-8.4,0-15.3,6.9-15.3,15.3v150.5c0,8.4,6.9,15.3,15.3,15.3h58.1c8.4,0,15.3-6.9,15.3-15.3V453.9h0.6c0.2,0,0.3-0.2,0.3-0.3V436
		c0-0.2-0.2-0.3-0.3-0.3h-0.6v-28.1c0-8.4-6.9-15.3-15.3-15.3L103.9,392.3L103.9,392.3z"/>
	<path class="st1" d="M162.7,395.8H155c1.2,2.9-0.2,6.2-3.1,7.4c-0.7,0.3-1.4,0.4-2.1,0.4h-33.3c-3.1,0-5.6-2.5-5.6-5.6
		c0-0.8,0.2-1.4,0.4-2.1h-7.1c-6.5,0-11.9,5.3-11.9,11.9V558c0,6.5,5.3,11.9,11.9,11.9l0,0h58.4c6.5,0,11.9-5.3,11.9-11.9l0,0l0,0
		V407.6C174.5,401.1,169.3,395.8,162.7,395.8z"/>
	<path class="st2" d="M789.2,574.4H10.8c-0.4,0-0.8-0.3-0.8-0.8s0.3-0.8,0.8-0.8l0,0h778.5c0.4,0,0.8,0.3,0.8,0.8
		S789.6,574.4,789.2,574.4L789.2,574.4z"/>
	<path class="st2" d="M549.1,573.9H375.8c-7.3,0-13.1-5.8-13.1-13.1s5.8-13.1,13.1-13.1h173.3c7.3,0,13.1,5.8,13.1,13.1
		C562.2,568.1,556.4,573.9,549.1,573.9z M375.8,548.9c-6.5,0-11.9,5.3-11.9,11.9s5.3,11.9,11.9,11.9l0,0h173.3
		c6.5,0,11.9-5.3,11.9-11.9s-5.3-11.9-11.9-11.9H375.8z"/>
	<polygon class="st3" points="675,473.9 679.8,484.1 721.3,470.2 714.1,455.2 	"/>
	<path class="st4" d="M679.7,508.2l-15.3-31.9l0,0l12.3-5.9l0,0l9.8,20.5c3,6.3,0.3,13.8-5.9,16.9L679.7,508.2L679.7,508.2z"/>
	<polygon class="st3" points="665.2,564.5 676.4,564.2 676.9,520.4 663.7,521.2 	"/>
	<path class="st4" d="M698.3,574.5h-35.3l0,0v-13.6l0,0h22.7c7,0,12.6,5.7,12.6,12.6V574.5L698.3,574.5z"/>
	<path class="st4" d="M666.2,558c-1.9,0-3.6-1.4-4.1-3.2c-6.2-24.8-29.1-149.4-8.8-173.9l0.2-0.3l0.3-0.1c1.4-0.3,28.2-8.6,44,4.3
		l0.2,0.2l8.7,25.3l23.6,35.1c5.3,7.9,3.2,18.6-4.7,24c-0.2,0.1-0.3,0.2-0.4,0.3L694,489.3c-1.5,0.9-3.5,0.8-4.9-0.3
		c-0.6-0.5-1-1.1-1.3-1.8l-6.5-16.3c-0.8-2,0.1-4.4,2-5.3l14.5-7.3c0.8-0.4,1.4-1.2,1.5-2.1c0.1-0.8-0.3-1.6-0.8-2.1l-16.9-14.6
		c-1.1-0.9-2.6-0.8-3.6,0.3c-0.4,0.5-0.7,1.1-0.6,1.8l4.2,110.4c0.1,2.1-1.4,4-3.6,4.3l-11.4,1.8C666.6,558,666.3,558,666.2,558z"/>
	<path class="st2" d="M695.2,389.3c-0.1,0-0.2,0-0.3,0l-42-3.1c-2.1-0.2-3.6-1.9-3.6-4.1c0-0.3,0.1-0.7,0.2-1
		c2.6-7.5,2.9-15.5,0.9-23.1c-2.7-10.8-2.8-30.9-2.6-41.9c0.1-3.9,3.1-7,7-7.2l0,0h0.8c6.9,0.1,19.4,0.6,29.8,2.7
		c7.1,1.4,12.3,7.7,12.5,15c0.3,10.3,0.3,24.1-0.9,32c-1,6.6,0.8,19.4,2,26.4c0.3,2.1-1.1,4.1-3.1,4.4
		C695.7,389.3,695.4,389.3,695.2,389.3z"/>
	<path class="st3" d="M710.2,429.4c-4.2-2-6-7.1-4-11.4c0.3-0.4,0.5-0.8,0.8-1.3L687.6,333h14.7l17.1,82.1c3.6,3,4.2,8.4,1.2,12
		C718,430.3,713.8,431.1,710.2,429.4z"/>
	<path class="st3" d="M618.3,342.1l23.2-22l8.7,12.3l-21.9,19.3l28.7,22.8c0.2,0,0.4,0,0.6,0c5.1,0,9.2,4.1,9.2,9.2
		s-4.1,9.2-9.2,9.2c-4.6,0-8.5-3.4-9.2-8l-0.1,0.1l-29.9-25.9c-4.7-4.2-5.3-11.4-1.2-16.1C617.7,342.6,617.9,342.4,618.3,342.1z"/>
	<path class="st2" d="M689.1,338.4c-1.4,0-2.8-0.8-3.5-2.2c-1.9-3.9-3.1-8.1-3.8-12.4c-1-7,3.8-11.1,8.8-12c4.8-0.8,10.7,1.3,12.1,8
		c0.1,0.6,0.3,1.1,0.3,1.7c0.6,5.1,1.2,9.1,1.7,11.8c0.4,2-0.9,4.1-3.1,4.4c-0.2,0-0.3,0.1-0.5,0.1L689.1,338.4
		C689.2,338.4,689.2,338.4,689.1,338.4z"/>
	<circle class="st4" cx="672.4" cy="276.2" r="25.4"/>
	<circle class="st3" cx="672.6" cy="282.9" r="20.9"/>
	<path class="st2" d="M635.6,328.3c-1.1-1-1.5-2.5-1.1-3.9c1.3-4.2,3.1-8.1,5.6-11.7c4-5.8,10.3-5.6,14.7-3c4.2,2.6,7,8.1,3.6,14.1
		c-0.3,0.5-0.6,1-0.9,1.4c-3,4.2-5.3,7.5-6.7,9.8c-1.1,1.8-3.5,2.4-5.3,1.2c-0.2-0.1-0.3-0.2-0.4-0.3l-9.2-7.6
		C635.7,328.4,635.7,328.3,635.6,328.3z"/>
	<path class="st4" d="M667.5,253.5c-5.1-3.1-6.2-10.7-3.1-15.8c3.1-5.1,9.2-7.8,15.2-8c8.5-0.3,16.7,4,22.7,10.1
		c6,6.1,9.9,13.9,12.9,21.9s5.2,16.2,8.1,24.2c1.5,4.1,3.4,8.3,6.9,10.9c3.5,2.6,9,3.1,12-0.1c0,5.2-4,9.8-8.8,11.4
		c-4.8,1.5-10.4,0.4-14.7-2.5c-7.5-4.9-11-13.9-13.1-22.5s-3.1-17.8-7.2-25.7c-1.7-3.3-4.1-6.4-7.4-8.1c-3.3-1.7-7.7-1.5-10.3,1
		c-1.2,1.2-2,2.8-3.4,3.8c-1.8,1.1-4,1.4-5.9,0.6c-1.9-0.8-3.7-1.8-5.4-3.1"/>
	<path class="st4" d="M650.9,268.8c8.2,11,23.8,13.3,34.8,5.1c0.3-0.3,0.6-0.4,0.8-0.7c2-1.6,3.9-3.9,3.8-6.5
		c-0.2-2.6-2.3-4.7-4.5-6.3c-5.8-3.8-12.9-5.4-19.8-4.6c-4,0.5-8,1.9-10.8,4.8c-2.8,2.9-4.2,7.3-2.8,11"/>
</g>
</svg>
