<?xml version="1.0" encoding="utf-8"?>
<!-- Generator: Adobe Illustrator 24.3.0, SVG Export Plug-In . SVG Version: 6.00 Build 0)  -->
<svg version="1.1" id="a139742c-031f-4297-9910-0b661ecf4262"
	 xmlns="http://www.w3.org/2000/svg" xmlns:xlink="http://www.w3.org/1999/xlink" x="0px" y="0px" viewBox="0 0 800 800"
	 style="enable-background:new 0 0 800 800;" xml:space="preserve">
<style type="text/css">
	.st0{fill:#E6E6E6;}
	.st1{fill:#3F3D56;}
	.st2{fill:#2F2E41;}
	.st3{fill:#A0616A;}
	.st4{fill:#CFCCE0;}
	.st5{fill:#FFFFFF;}
	.st6{fill:#1565C0;}
</style>
<g>
	<path class="st0" d="M61.1,509.1l-4.7-18.4c-8.3-3.5-16.8-6.6-25.5-9.1l-0.6,8.6l-2.4-9.5c-10.7-3.1-18-4.4-18-4.4
		s9.8,37.5,30.6,66.1l24.1,4.2l-18.7,2.7c2.6,3.2,5.4,6.1,8.3,8.9c30,27.9,63.6,40.8,74.8,28.6c11.2-12.1-4-44.5-34.1-72.5
		c-9.3-8.7-21-15.6-32.8-21.1L61.1,509.1z"/>
	<path class="st0" d="M105.7,489.1l5.5-18.3c-5.3-7.3-11-14.3-17-21l-4.9,7l2.8-9.3c-7.6-8.2-13.2-13.1-13.2-13.1s-11,37.2-8.1,72.4
		l18.4,16.1l-17.4-7.4c0.6,4,1.5,8,2.5,11.9c11.3,39.4,33.4,67.7,49.3,63.1c15.9-4.6,19.6-40.2,8.3-79.7c-3.5-12.2-9.9-24.2-17.1-35
		L105.7,489.1z"/>
	<rect x="10.1" y="593.4" class="st1" width="779.9" height="1.9"/>
	<path class="st2" d="M133.3,389.6c0,0-6.1,73-7.4,88.7c-0.9,9.8-3.1,19.5-6.5,28.7c0,0-2.6,5.2-2.6,10.5V584c0,0-5.2,0-4,5.2
		s2.6,14.3,2.6,14.3h19.6c0,0-1.3-4,2.6-5.2c4-1.2,0-11.8,0-11.8l20.9-78.3l31.3-65.2c0,0,18.3,58.7,22.1,65.2c0,0,14.3,73,17,79.6
		c2.6,6.6,4,6.5,2.6,9.1c-1.3,2.6-1.3,5.2,0,6.5c1.3,1.3,26.1,0,26.1,0l-6.5-92.6L239.4,400l-60-18.3L133.3,389.6z"/>
	<path class="st2" d="M129.8,593c0,0-6.5-23.5-17-5.2c-10.5,18.3-10.5,24.8-10.5,24.8s-17,24.8,6.5,22.1s18.3-14.3,18.3-14.3
		s9.1-5.2,9.1-9.1C136.4,607.4,129.8,593,129.8,593z"/>
	<path class="st2" d="M235.5,590.5c0,0,6.5-23.5,17-5.2s10.5,24.8,10.5,24.8s17,24.8-6.5,22.1c-23.5-2.6-18.3-14.3-18.3-14.3
		s-9.1-5.2-9.1-9.1S235.5,590.5,235.5,590.5z"/>
	<path class="st3" d="M174.2,213.6c0,0,2.6,17-5.2,20.9c-7.8,4,17,18.3,23.5,18.3c6.5,0,18.3-13,18.3-13s-6.5-19.6-5.2-23.5
		L174.2,213.6z"/>
	<circle class="st3" cx="188.5" cy="199.2" r="27.4"/>
	<path class="st4" d="M242,255.3l-32.6-19.8c0,0-18.5,21.1-38.6-2.5l-34.4,9.1l5.2,88.7c0,0-7.8,35.2-5.2,41.7
		c2.6,6.5-6.5,9.1-4,10.5c2.5,1.3,0,10.5,0,10.5s50.9,26.1,107,6.5l-5.2-17c1.4-4.5,0.4-9.4-2.6-13c0,0,5.2-7.8-1.3-14.3
		c0,0,2.6-11.8-4-17l-1.3-18.3l4-9.1L242,255.3z"/>
	<path class="st2" d="M174.5,186.5c0,0-3.2,7,9.8,4.2c0,0,4.9,2.8,4.9-1.4c0,0,6.5,7,8.2,2.8c1.7-4.2,4.9,1.4,4.9,1.4l3.2-7l3.2,4.2
		h11.4c0,0,3.2-28.3-35.9-25.5c-39.2,2.8-19.9,47.6-19.9,47.6s0.4-8.1,3.6-3.8S174.5,186.5,174.5,186.5z"/>
	<path class="st3" d="M253.7,307.5l1.3,27.4c0,0,5.2,50.9-5.2,73v11.8c0,0-2.6,29.9-15.6,28.7c-13-1.2,4-43,4-43l-2.6-57.4
		l-2.6-32.6L253.7,307.5z"/>
	<path class="st4" d="M227.6,256.6l13-2.1c9.4,9,15.7,20.6,18.3,33.4c4,20.9,5.2,24.8,5.2,24.8l-31.3,7.8l-17-32.6L227.6,256.6z"/>
	<rect x="171.6" y="241.7" class="st5" width="205.8" height="102.2"/>
	<path class="st6" d="M194.1,247.8c-5.3-3.2-11.7-2.9-14.1-2.7c1,2.3,3.7,8,9,11.2c5.3,3.2,11.7,2.9,14.1,2.7
		C202.2,256.8,199.4,251,194.1,247.8z"/>
	<path class="st6" d="M218.9,311h-33c-4.1,0-7.5,3.3-7.5,7.5c0,4.1,3.3,7.5,7.5,7.5l0,0h33c4.1,0,7.5-3.3,7.5-7.5
		C226.4,314.3,223.1,311,218.9,311z"/>
	<path class="st6" d="M368.6,232.5H183.3c-9,0-16.4,7.4-16.4,16.4l0,0v90.3c0,9,7.4,16.4,16.4,16.4l0,0h185.2
		c9,0,16.4-7.4,16.4-16.4v-90.3C384.9,239.8,377.6,232.5,368.6,232.5L368.6,232.5z M178.7,243.6c0.4-0.1,9-1.6,16.2,2.8
		c7.2,4.3,9.9,12.6,10.1,13l0.3,0.9l-1,0.2c-1.3,0.2-2.6,0.3-4,0.3c-4.3,0.1-8.5-1-12.2-3.1c-7.2-4.3-9.9-12.6-10.1-13l-0.3-0.9
		L178.7,243.6z M218.9,327.5h-33c-5,0-9-4-9-9.1c0-5,4-9,9-9h33c5,0,9.1,4,9.1,9C228,323.4,223.9,327.5,218.9,327.5L218.9,327.5z
		 M369.3,325.8c0,5.4-4.5,9.9-9.9,9.9h-24.8c-5.4,0-9.9-4.5-9.9-9.9V311c0-5.4,4.5-9.9,9.9-9.9h24.8c5.4,0,9.9,4.5,9.9,9.9V325.8z"
		/>
	<path class="st6" d="M342.4,322.9h-10.7c-1.6,0-2.9,1.3-2.9,2.9s1.3,2.9,2.9,2.9h10.7c1.6,0,2.9-1.3,2.9-2.9S344,322.9,342.4,322.9
		z M342.4,327.1h-10.7c-0.7,0-1.2-0.5-1.2-1.2c0-0.7,0.5-1.2,1.2-1.2l0,0h10.7c0.7,0,1.2,0.5,1.2,1.2
		C343.7,326.5,343.1,327.1,342.4,327.1z"/>
	<path class="st6" d="M362.3,322.9h-10.7c-1.6,0-2.9,1.3-2.9,2.9s1.3,2.9,2.9,2.9h10.7c1.6,0,2.9-1.3,2.9-2.9
		S363.9,322.9,362.3,322.9z M362.3,327.1h-10.7c-0.7,0-1.2-0.5-1.2-1.2c0-0.7,0.5-1.2,1.2-1.2l0,0h10.7c0.7,0,1.2,0.5,1.2,1.2
		C363.5,326.5,363,327.1,362.3,327.1z"/>
	<path class="st6" d="M342.4,315.5h-10.7c-1.6,0-2.9,1.3-2.9,2.9c0,1.6,1.3,2.9,2.9,2.9h10.7c1.6,0,2.9-1.3,2.9-2.9
		C345.3,316.8,344,315.5,342.4,315.5z M342.4,319.6h-10.7c-0.7,0-1.2-0.5-1.2-1.2c0-0.7,0.5-1.2,1.2-1.2l0,0h10.7
		c0.7,0,1.2,0.5,1.2,1.2C343.7,319.1,343.1,319.6,342.4,319.6L342.4,319.6z"/>
	<path class="st6" d="M362.3,315.5h-10.7c-1.6,0-2.9,1.3-2.9,2.9c0,1.6,1.3,2.9,2.9,2.9h10.7c1.6,0,2.9-1.3,2.9-2.9
		C365.2,316.8,363.9,315.5,362.3,315.5z M362.3,319.6h-10.7c-0.7,0-1.2-0.5-1.2-1.2c0-0.7,0.5-1.2,1.2-1.2l0,0h10.7
		c0.7,0,1.2,0.5,1.2,1.2C363.5,319.1,363,319.6,362.3,319.6L362.3,319.6z"/>
	<path class="st6" d="M342.4,308.1h-10.7c-1.6,0-2.9,1.3-2.9,2.9s1.3,2.9,2.9,2.9h10.7c1.6,0,2.9-1.3,2.9-2.9
		C345.3,309.3,344,308.1,342.4,308.1z M342.4,312.2h-10.7c-0.7,0-1.2-0.5-1.2-1.2c0-0.7,0.5-1.2,1.2-1.2l0,0h10.7
		c0.7,0,1.2,0.5,1.2,1.2C343.7,311.6,343.1,312.2,342.4,312.2z"/>
	<path class="st6" d="M362.3,308.1h-10.7c-1.6,0-2.9,1.3-2.9,2.9s1.3,2.9,2.9,2.9h10.7c1.6,0,2.9-1.3,2.9-2.9
		C365.2,309.3,363.9,308.1,362.3,308.1z M362.3,312.2h-10.7c-0.7,0-1.2-0.5-1.2-1.2c0-0.7,0.5-1.2,1.2-1.2l0,0h10.7
		c0.7,0,1.2,0.5,1.2,1.2C363.5,311.6,363,312.2,362.3,312.2z"/>
	<path class="st3" d="M116.8,291.8c0,0-11.8,49.5,2.6,49.5s48.2-56,48.2-56s35.2-18.3,20.9-24.8C174.2,254.1,156,271,156,271
		l-21.1,29.2l-1.1-14.9L116.8,291.8z"/>
	<path class="st4" d="M144.2,250l-7.8-7.8c0,0-15.6,9.1-17,18.3c-1.3,9.1-7.8,37.9-7.8,37.9l24.2,1.9l7.8-11.8L144.2,250z"/>
	<path class="st6" d="M514.8,231.5c-1-2.9-13.3-12.7-5.8-14.4l6.1,8.3l28.5-28.5l2.9,2.9L514.8,231.5z"/>
	<path class="st6" d="M514.8,328.3c-1-2.9-13.3-12.7-5.8-14.4l6.1,8.3l28.5-28.5l2.9,2.9L514.8,328.3z"/>
	<path class="st6" d="M514.8,426.5c-1-2.9-13.3-12.7-5.8-14.4l6.1,8.3l28.5-28.5l2.9,2.9L514.8,426.5z"/>
	<circle class="st1" cx="601" cy="219.7" r="8.8"/>
	<rect x="633.9" y="218.9" class="st1" width="141.4" height="1.8"/>
	<circle class="st1" cx="601" cy="316.5" r="8.8"/>
	<rect x="633.9" y="315.6" class="st1" width="141.4" height="1.8"/>
	<circle class="st1" cx="601" cy="414.7" r="8.8"/>
	<rect x="633.9" y="413.8" class="st1" width="141.4" height="1.8"/>
	<polygon class="st1" points="537,439.6 493.1,439.6 493.1,394.8 522.9,394.8 522.9,396.5 494.8,396.5 494.8,437.8 535.2,437.8 
		535.2,417.6 537,417.6 	"/>
	<polygon class="st1" points="537,341.2 493.1,341.2 493.1,296.4 522.9,296.4 522.9,298.2 494.8,298.2 494.8,339.4 535.2,339.4 
		535.2,319.2 537,319.2 	"/>
	<polygon class="st1" points="537,241.1 493.1,241.1 493.1,196.3 522.9,196.3 522.9,198 494.8,198 494.8,239.3 535.2,239.3 
		535.2,219.1 537,219.1 	"/>
</g>
</svg>
