<?xml version="1.0" encoding="utf-8"?>
<!-- Generator: Adobe Illustrator 24.3.0, SVG Export Plug-In . SVG Version: 6.00 Build 0)  -->
<svg version="1.1" id="e6d15d18-a685-4480-ac2b-bd578043a679"
	 xmlns="http://www.w3.org/2000/svg" xmlns:xlink="http://www.w3.org/1999/xlink" x="0px" y="0px" viewBox="0 0 800 800"
	 style="enable-background:new 0 0 800 800;" xml:space="preserve">
<style type="text/css">
	.st0{fill:#F2F2F2;}
	.st1{opacity:0.1;enable-background:new    ;}
	.st2{fill:#65617D;}
	.st3{opacity:0.2;enable-background:new    ;}
	.st4{fill:#3F3D56;}
	.st5{fill:#1565C0;}
	.st6{fill:#FBBEBE;}
	.st7{fill:#FF6584;}
</style>
<g>
	<path class="st0" d="M729.8,520.5c-0.9,1.9-1.7,3.7-2.6,5.5c-1.3,2.8-2.7,5.6-4,8.3c-0.6,1.2-1.2,2.4-1.7,3.6
		c-6.4,13.2-12.4,24.8-17.6,34.3c-9.4,17.7-27.8,28.7-47.7,29l-113.4,1.3h-1.2l-9.7,0.1l-8.3,0.1l-25.5,0.3h-1l-13,0.1h-0.4l-80,0.9
		l-71.4,0.7l-8.3,0.1l-51.6,0.6h-0.1l-33.5,0.4h-0.4l-105.9,1.1l-31.6,0.4c-2.7,0-5.4-0.1-8.1-0.4l0,0c-0.9-0.1-1.8-0.2-2.7-0.4
		c-14.7-2.2-28.3-9.6-38.4-20.6c-13.6-15-23.6-32.5-30.2-51.5c-1-2.8-1.9-5.5-2.7-8.3c-23-78,5.1-178.4,55.7-245.7
		c2.1-2.8,4.3-5.5,6.4-8.2l0.1-0.1c15.6-19.1,33-35,51.5-46.4c32.9-20.1,69.4-25.8,105.3-8.9c30.4,14.3,58.7,21,86.2,22.9
		c2.8,0.1,5.5,0.3,8.3,0.4c63,1.8,122-20.9,191.4-35.5c2.8-0.6,5.5-1.2,8.3-1.7c49.4-9.9,104.4-15,169.6-4.1
		c6.8,1.1,13.5,2.7,20,4.8c2.8,0.9,5.7,1.9,8.3,3c31.1,12.6,48.1,36.1,55.4,65.5c0.7,2.7,1.3,5.5,1.8,8.3
		C799.7,350.9,762.2,451,729.8,520.5z"/>
	<path class="st1" d="M382.3,526c-0.3,2.8-0.7,5.6-1.4,8.3H451V526H382.3z M323.8,573l8.3-0.1v-20.6c-2.8-0.1-5.6-0.2-8.3-0.4V573z
		 M149.6,526v8.3h148.5V526H149.6z M785.1,272.1h-55.4v-65.5c-2.7-1-5.5-2.1-8.3-3v68.5H531.8v-69.1c-2.8,0.5-5.5,1.1-8.3,1.7v67.4
		H332.1V240c-2.8-0.1-5.5-0.2-8.3-0.4v32.5H132.4v-46.4c-18.6,11.4-36,27.3-51.5,46.4h-0.1v0.1c-2.2,2.7-4.3,5.5-6.4,8.2h6.4V526
		H18.6c0.8,2.8,1.7,5.6,2.7,8.3h59.4v70c3,0.9,6.1,1.6,9.1,2.1c0.9,0.1,1.8,0.2,2.7,0.4l0,0c2.7,0.3,5.4,0.4,8.1,0.4l31.6-0.4v-72.6
		h191.4v70.5l8.3-0.1v-70.4h191.4v68.4l8.3-0.1v-68.2h189.6v3.6c0.6-1.2,1.1-2.4,1.7-3.6c1.3-2.7,2.6-5.5,4-8.3
		c0.9-1.8,1.7-3.7,2.6-5.5V280.4h57.2C786.4,277.5,785.8,274.8,785.1,272.1z M132.4,526V280.4h191.4V526L132.4,526L132.4,526z
		 M332.1,526V280.4h191.4V526L332.1,526L332.1,526z M721.5,526H531.8V280.4h189.6V526z"/>
	<polygon class="st2" points="656.2,592 656.2,601.7 542.5,602.6 541.3,602.7 498.1,603.1 497,603.1 484,603.2 483.6,603.2 
		403.5,604 272.2,605.2 272,605.2 238.7,605.5 238.3,605.5 89.9,606.9 89.9,595.7 124.7,574.7 194.7,574.1 196.2,574.1 196.8,574.1 
		198.3,574.1 231.9,573.8 233.4,573.8 233.9,573.8 235.4,573.8 246.1,573.7 246.4,573.7 273,573.5 273.2,573.5 480.7,571.7 
		485.8,571.7 486.4,571.7 490.2,571.6 518.4,571.4 519.9,571.4 521.3,571.4 522,571.4 530.7,571.3 532.5,571.3 534.8,571.2 
		542.1,571.2 553.7,571.1 555.2,571.1 557.8,571.1 558.2,571.1 614.1,570.6 	"/>
	<polygon class="st3" points="656.2,592 656.2,601.7 542.5,602.6 541.3,602.7 498.1,603.1 497,603.1 484,603.2 483.6,603.2 
		403.5,604 272.2,605.2 272,605.2 238.7,605.5 238.3,605.5 89.9,606.9 89.9,595.7 124.7,574.7 194.7,574.1 196.2,574.1 196.8,574.1 
		198.3,574.1 231.9,573.8 233.4,573.8 233.9,573.8 235.4,573.8 246.1,573.7 246.4,573.7 273,573.5 273.2,573.5 480.7,571.7 
		485.8,571.7 486.4,571.7 490.2,571.6 518.4,571.4 519.9,571.4 521.3,571.4 522,571.4 530.7,571.3 532.5,571.3 534.8,571.2 
		542.1,571.2 553.7,571.1 555.2,571.1 557.8,571.1 558.2,571.1 614.1,570.6 	"/>
	<path class="st4" d="M232,554.5v18.3c0,1.8-1,3.4-2.6,4.1c-0.6,0.3-1.2,0.4-1.9,0.4l-26.1,0.5c-0.7,0-1.4-0.1-2-0.4
		c-1.6-0.7-2.7-2.4-2.7-4.2v-18.9L232,554.5L232,554.5z"/>
	<path class="st1" d="M232,554.5v18.3c0,1.8-1,3.4-2.6,4.1c-0.6,0.3-1.2,0.4-1.9,0.4l-26.1,0.5c-0.7,0-1.4-0.1-2-0.4
		c-1.6-0.7-2.7-2.4-2.7-4.2v-18.9L232,554.5L232,554.5z"/>
	<path class="st4" d="M233.5,554.5v18.3c0,1.8-1,3.4-2.6,4.1c-0.6,0.3-1.2,0.4-1.9,0.4l-26.1,0.5c-0.7,0-1.4-0.1-2-0.4
		c-1.6-0.7-2.7-2.4-2.7-4.2v-18.9L233.5,554.5L233.5,554.5z"/>
	<rect x="519.9" y="554.5" class="st4" width="35.3" height="23.6"/>
	<rect x="519.9" y="554.5" class="st1" width="35.3" height="23.6"/>
	<rect x="518.4" y="554.5" class="st4" width="35.3" height="23.6"/>
	<polygon class="st1" points="233.5,554.5 233.5,558.2 198.2,559.2 198.2,554.5 	"/>
	<path class="st2" d="M295.8,426.4v125.8c0,1.6-1.3,2.9-2.9,3L149.6,559l0,0c-1.6,0-2.9-1.3-3-3V426.4c0-1.6,1.3-2.9,3-3h143.3
		C294.5,423.4,295.7,424.8,295.8,426.4z"/>
	<path class="st1" d="M149.6,423.4V559l0,0c-1.6,0-2.9-1.3-3-3V426.4C146.6,424.8,147.8,423.4,149.6,423.4L149.6,423.4z"/>
	<polygon class="st5" points="156.1,431.4 288.9,431.4 288.9,542.4 156.1,545.3 	"/>
	<polygon class="st1" points="553.7,554.5 553.7,559.3 518.4,558.4 518.4,554.5 	"/>
	<path class="st2" d="M600.2,426.4V556c0,1.6-1.3,3-3,3l0,0l-143.4-3.8c-1.6-0.1-2.8-1.3-2.8-3V426.4c0-1.6,1.3-2.9,2.9-3h143.3
		C598.9,423.4,600.2,424.8,600.2,426.4z"/>
	<path class="st1" d="M600.2,426.4V556c0,1.6-1.3,3-3,3l0,0V423.4l0,0C598.9,423.4,600.2,424.8,600.2,426.4z"/>
	<polygon class="st5" points="590.7,431.4 457.9,431.4 457.9,542.4 590.7,545.3 	"/>
	<path class="st2" d="M447.2,426.4v125.8c0,1.6-1.3,2.9-2.8,3L301,559l0,0c-1.6,0-3-1.3-3-3V426.4c0-1.6,1.3-2.9,3-3h143.3
		C446,423.4,447.2,424.8,447.2,426.4z"/>
	<polygon class="st5" points="307.6,431.4 440.3,431.4 440.3,542.4 307.6,545.3 	"/>
	<polygon class="st1" points="656.2,592 656.2,601.7 542.5,602.6 541.3,602.7 498.1,603.1 497,603.1 484,603.2 483.6,603.2 
		403.5,604 272.2,605.2 272,605.2 238.7,605.5 238.3,605.5 89.9,606.9 89.9,595.7 241.4,594.6 241.7,594.6 272.4,594.4 272.5,594.4 
		484.3,593.1 484.5,593.1 484.6,593.1 485,593.1 488.6,593 489.6,593 545.4,592.6 548.7,592.6 549.4,592.6 	"/>
	<circle class="st6" cx="375" cy="415.7" r="38.4"/>
	<path class="st6" d="M413.4,474.9c0,0-74.4,9-67.3,0c2.5-3.2,3.3-12.9,3.1-23.8c-0.1-3.4-0.1-6.8-0.4-10.2
		c-0.8-16.5-2.8-32.5-2.8-32.5s65.1-30.7,57.6-6.4c-3,9.8-2,23.6,0.2,36.6c0.7,3.7,1.4,7.5,2.2,11
		C408.2,458,410.6,466.5,413.4,474.9z"/>
	<path class="st7" d="M389.1,471.8c8.6-1.6,17.7-4.5,25.8-1.1c2.1,0.9,4.1,2.2,6.3,2.9c2.2,0.7,4.6,0.9,6.9,1.4
		c8,1.8,14.4,7.9,18.6,15c4.2,7.1,6.3,15,8.5,23l5.2,19.3c4.5,16.8,9,33.7,10,51.1c-62.5,3.6-125.2,4-187.6,1
		c4-7.7,8.2-15.9,7.9-24.7c-0.4-8.8-5.4-17.4-3.6-26c1.1-5.5,4.9-10,7.2-15.1c6.6-14.6,1.4-34.3,12.9-45.4c5.2-5,12.7-6.9,19.9-6.7
		c9.2,0.3,18.6,3.1,27.7,4.6C366.4,472.9,377.4,474,389.1,471.8z"/>
	<path class="st1" d="M487,555l-0.1,1v0.1l-0.1,1.7l-1,13.8l-1.2,16.7l-0.4,4.7l-0.7,10v0.1l-80,0.7l-131.4,1.4v0.6H272v-0.6v-0.2
		l0.4-10.8l0.7-21l0.5-17.8l0.1-1.8c0.1-4.3,3.7-7.8,8.1-7.6c0.1,0,0.3,0,0.4,0c3.5,0.3,8.2,0.7,13.6,1l2.2,0.1
		c31.6,2.2,90.2,5,149.2,1.5c1.3-0.1,2.5-0.1,3.7-0.2c9.1-0.6,18.3-1.3,27.4-2.2c4.3-0.4,8.2,2.7,8.7,7
		C487.1,554,487.1,554.5,487,555L487,555z"/>
	<path class="st4" d="M272.1,606v-0.6l131.4-1.4l80-0.7h0.2v-0.1l0.7-10l0.3-4.5l1.2-16.9l1-13.4V558c0.1-0.6,0-1.3-0.1-1.9V556
		c-0.2-1.3-0.7-2.5-1.5-3.4c-1.6-2.2-4.3-3.3-7-3c-9.1,0.9-18.2,1.6-27.4,2.2c-1.3,0.1-2.5,0.1-3.7,0.2c-59,3.5-117.6,0.7-149.2-1.5
		l-2.2-0.1c-5.5-0.4-10.1-0.7-13.6-1c-4-0.4-7.6,2.4-8.4,6.4c-0.1,0.4-0.1,0.8-0.1,1.2l-0.5,16.6l-0.7,21l-0.3,10.8v0.2V606
		L272.1,606z"/>
	<path class="st1" d="M487.2,560.2l-0.9,11.4l-1.3,17.1l-0.4,4.3l-0.7,9.6l-0.1,0.4v0.1l0,0l-0.1,1.1l0.1-1.1h-0.2l-80,0.7
		l-131.4,1.4v-0.2l0.4-10.8l0.7-21l0.4-14c0.1-1.6,0.9-3.1,2.3-3.9c0.8-0.5,1.9-0.7,2.8-0.7c1.6,0.1,3.5,0.3,5.8,0.4
		c3.7,0.3,8.2,0.6,13.4,0.9c9.7,0.6,21.9,1.3,35.9,1.8c38.9,1.5,91.4,2,141.3-2.4c2.2-0.2,4.6-0.4,6.8-0.6c0.9-0.1,1.8,0.1,2.6,0.5
		c0.2,0.1,0.4,0.2,0.7,0.4c0.7,0.4,1.2,1.1,1.5,1.9c0.1,0.1,0.1,0.3,0.2,0.4C487.2,558.9,487.3,559.6,487.2,560.2z"/>
	<path class="st1" d="M233.5,570.5v2.4c0,1.8-1,3.4-2.6,4.1l-30,0.6c-1.6-0.7-2.7-2.4-2.7-4.2v-2.2L233.5,570.5z"/>
	<polygon class="st4" points="233.9,578.4 194.7,579.2 194.7,572.6 233.9,571.9 	"/>
	<polygon class="st1" points="233.9,578.4 194.7,579.2 194.7,572.6 233.9,571.9 	"/>
	<polygon class="st4" points="235.4,578.4 196.2,579.2 196.2,572.6 235.4,571.9 	"/>
	<path class="st1" d="M518.6,572v2.4c0,1.8,1,3.4,2.6,4.1l30,0.6c1.6-0.7,2.7-2.4,2.7-4.2v-2.2L518.6,572z"/>
	<polygon class="st1" points="518.2,579.9 557.3,580.7 557.3,574.1 518.2,573.4 	"/>
	<polygon class="st4" points="516.7,579.9 555.8,580.7 555.8,574.1 516.7,573.4 	"/>
	<path class="st4" d="M350.7,427.5c0.1,5.2-2.4,10.2-4.4,15c-7.5,17.7-10.7,36.8-9.5,55.9c0.5,8.2,1.9,16.5,0.5,24.6
		c-1.4,8.2-6.3,16.3-14.2,18.6c13.1,7.9,30.9,7,43.2-2c6.6-4.8,11.4-11.4,16.3-18c-0.6,11.8-4,23.3-9.9,33.5
		c21.8-1.9,41.8-13,55-30.5c3.2-4.3,6.1-9.1,7.3-14.4c2.3-9.7-0.9-19.8-3.4-29.5c-2-8.2-3.6-16.4-4.6-24.7c-0.3-2.7-0.6-5.4,0.1-8
		c0.7-3.1,2.8-5.6,4.2-8.4c4.2-7.9,4.3-17.4,2.2-26.1c-2.1-8.7-6.4-16.7-10.5-24.5c-3.4-6.4-7-12.9-13.1-16.7
		c-3.8-2.3-8.2-3.3-12.6-4.2l-19-4c-4.1-0.9-8.5-1.8-12.6-1.1c-7.1,1.1-12,6.2-16.5,11.4c-3.4,4.1-11.8,11.7-12.4,17.1
		c-0.5,4.9,3.8,13.2,4.6,18.4c1,6.7,1.6,4.5,5.5,8.6C349.2,420.9,350.6,423.9,350.7,427.5z"/>
	<path class="st0" d="M235.1,442.3h-74.5c-0.2,0-0.4-0.1-0.4-0.4s0.1-0.4,0.4-0.4h74.5c0.2,0,0.4,0.1,0.4,0.4
		S235.3,442.3,235.1,442.3z"/>
	<path class="st0" d="M235.1,449h-74.5c-0.2,0-0.4-0.1-0.4-0.4s0.1-0.4,0.4-0.4h74.5c0.2,0,0.4,0.1,0.4,0.4S235.3,449,235.1,449z"/>
	<path class="st0" d="M235.1,455.7h-74.5c-0.2,0-0.4-0.1-0.4-0.4s0.1-0.4,0.4-0.4h74.5c0.2,0,0.4,0.1,0.4,0.4
		S235.3,455.7,235.1,455.7z"/>
</g>
</svg>
