<?xml version="1.0" encoding="utf-8"?>
<!-- Generator: Adobe Illustrator 24.3.0, SVG Export Plug-In . SVG Version: 6.00 Build 0)  -->
<svg version="1.1" id="b5d1da7b-a9c6-4711-8d73-fa7937ec989e"
	 xmlns="http://www.w3.org/2000/svg" xmlns:xlink="http://www.w3.org/1999/xlink" x="0px" y="0px" viewBox="0 0 800 800"
	 style="enable-background:new 0 0 800 800;" xml:space="preserve">
<style type="text/css">
	.st0{fill:#CCCCCC;}
	.st1{fill:#2F2E41;}
	.st2{fill:#3F3D56;}
	.st3{fill:#1565C0;}
	.st4{fill:#E6E6E6;}
	.st5{fill:#FFFFFF;}
	.st6{fill:#E2E2E2;}
</style>
<g>
	<path class="st0" d="M400.8,619.1c-126.1,0-228.5-102.2-228.5-228.5s102.3-228.4,228.5-228.4c126.2,0,228.5,102.2,228.5,228.4
		c0,60.6-24.1,118.7-66.9,161.5C519.6,595.2,461.4,619.2,400.8,619.1z M400.8,164c-125,0-226.7,101.7-226.7,226.7
		s101.7,226.7,226.7,226.7s226.7-101.8,226.7-226.8S525.8,164,400.8,164L400.8,164z"/>
	<rect x="314.4" y="423.2" class="st1" width="171.3" height="230.1"/>
	<rect x="284.9" y="416.2" class="st2" width="230.1" height="91.4"/>
	<rect x="284.9" y="518.1" class="st2" width="230.1" height="91.4"/>
	<rect x="284.9" y="619.9" class="st2" width="230.1" height="91.4"/>
	<rect x="284.9" y="454.9" class="st3" width="230.1" height="14.1"/>
	<rect x="284.9" y="556.8" class="st3" width="230.1" height="14.1"/>
	<rect x="284.9" y="658.7" class="st3" width="230.1" height="14.1"/>
	<circle class="st3" cx="470.3" cy="429.3" r="5.3"/>
	<circle class="st3" cx="488.7" cy="429.3" r="5.3"/>
	<circle class="st3" cx="507.2" cy="429.3" r="5.3"/>
	<circle class="st3" cx="470.3" cy="529.5" r="5.3"/>
	<circle class="st3" cx="488.7" cy="529.5" r="5.3"/>
	<circle class="st3" cx="507.2" cy="529.5" r="5.3"/>
	<circle class="st3" cx="470.3" cy="629.6" r="5.3"/>
	<circle class="st3" cx="488.7" cy="629.6" r="5.3"/>
	<circle class="st3" cx="507.2" cy="629.6" r="5.3"/>
	<rect x="10" y="710.4" class="st2" width="780" height="1.8"/>
	<path class="st4" d="M222.5,326v163.4c0,7.1-5.8,12.9-12.9,12.9h-63.5c-7.1,0-12.9-5.8-12.9-12.9V326c0-7.1,5.8-12.9,12.9-12.9h7.7
		c-1.3,3.2,0.3,6.7,3.3,8c0.7,0.3,1.5,0.4,2.3,0.4h36.2c3.4,0,6.1-2.7,6.1-6.1c0-0.8-0.2-1.6-0.4-2.3h8.3
		C216.7,313,222.5,318.8,222.5,326z"/>
	<rect x="137.5" y="344.2" class="st5" width="80.8" height="112.4"/>
	<rect x="160.4" y="421.5" class="st4" width="32.2" height="1.8"/>
	<rect x="160.3" y="428.3" class="st3" width="49.9" height="1.8"/>
	<rect x="160.3" y="434.7" class="st4" width="39.2" height="1.8"/>
	<rect x="160.3" y="441" class="st4" width="23" height="1.8"/>
	<rect x="160.3" y="447.4" class="st4" width="34.5" height="1.8"/>
	<rect x="145.7" y="421" class="st4" width="3.7" height="3.7"/>
	<rect x="145.7" y="427.4" class="st3" width="3.7" height="3.7"/>
	<rect x="145.7" y="433.7" class="st4" width="3.7" height="3.7"/>
	<rect x="145.7" y="440.1" class="st4" width="3.7" height="3.7"/>
	<rect x="145.7" y="446.6" class="st4" width="3.7" height="3.7"/>
	<rect x="161.8" y="358.3" class="st4" width="32.5" height="32.5"/>
	<rect x="292" y="87.9" class="st4" width="216" height="138.3"/>
	<rect x="308.3" y="126.6" class="st5" width="179.1" height="67.6"/>
	<rect x="341" y="138.3" class="st4" width="43" height="2.5"/>
	<rect x="340.9" y="147.4" class="st3" width="66.5" height="2.5"/>
	<rect x="340.9" y="155.9" class="st4" width="52.2" height="2.5"/>
	<rect x="340.9" y="164.4" class="st4" width="30.7" height="2.5"/>
	<rect x="340.9" y="172.9" class="st4" width="46" height="2.5"/>
	<rect x="321.5" y="137.6" class="st4" width="4.9" height="4.9"/>
	<rect x="321.5" y="146.1" class="st3" width="4.9" height="4.9"/>
	<rect x="321.5" y="154.7" class="st4" width="4.9" height="4.9"/>
	<rect x="321.5" y="163.2" class="st4" width="4.9" height="4.9"/>
	<rect x="321.5" y="171.6" class="st4" width="4.9" height="4.9"/>
	<rect x="434.6" y="135.1" class="st4" width="44" height="44"/>
	<rect x="292" y="87.8" class="st3" width="216" height="9.1"/>
	<circle class="st5" cx="298.8" cy="92.5" r="1.8"/>
	<circle class="st5" cx="305.2" cy="92.5" r="1.8"/>
	<circle class="st5" cx="311.7" cy="92.5" r="1.8"/>
	<rect x="599.9" y="346.8" class="st4" width="52.7" height="27.2"/>
	<rect x="599.9" y="444.3" class="st4" width="52.7" height="27.2"/>
	<circle class="st4" cx="626.3" cy="409.1" r="43.9"/>
	<circle class="st5" cx="626.3" cy="409.1" r="34.3"/>
	<rect x="615.1" y="399.7" class="st6" width="26.5" height="1.5"/>
	<rect x="615" y="405.4" class="st3" width="41.1" height="1.5"/>
	<rect x="615" y="410.5" class="st6" width="32.2" height="1.5"/>
	<rect x="615" y="415.8" class="st6" width="19" height="1.5"/>
	<rect x="615" y="421.1" class="st6" width="28.5" height="1.5"/>
	<rect x="603.1" y="399.3" class="st6" width="3.1" height="3.1"/>
	<rect x="603.1" y="404.6" class="st3" width="3.1" height="3.1"/>
	<rect x="603.1" y="409.8" class="st6" width="3.1" height="3.1"/>
	<rect x="603.1" y="415.1" class="st6" width="3.1" height="3.1"/>
	<rect x="603.1" y="420.3" class="st6" width="3.1" height="3.1"/>
</g>
</svg>
